<mxfile host="app.diagrams.net" agent="Mozilla/5.0 (Windows NT 10.0; Win64; x64) AppleWebKit/537.36 (KHTML, like Gecko) Chrome/129.0.0.0 Safari/537.36" version="24.7.17">
  <diagram name="PÃ¡gina-1" id="DBEVGOLoKo-KJYhN6CMY">
    <mxGraphModel dx="1235" dy="1783" grid="1" gridSize="10" guides="1" tooltips="1" connect="1" arrows="1" fold="1" page="1" pageScale="1" pageWidth="827" pageHeight="1169" math="0" shadow="0">
      <root>
        <mxCell id="0" />
        <mxCell id="1" parent="0" />
        <mxCell id="9N5VcvwG8qzn36j6Q9Zj-50" value="Module" style="shape=module;align=left;spacingLeft=20;align=center;verticalAlign=top;whiteSpace=wrap;html=1;" vertex="1" parent="1">
          <mxGeometry x="1130" y="150" width="180" height="140" as="geometry" />
        </mxCell>
        <mxCell id="9N5VcvwG8qzn36j6Q9Zj-5" style="edgeStyle=orthogonalEdgeStyle;rounded=0;orthogonalLoop=1;jettySize=auto;html=1;strokeColor=default;startArrow=classic;startFill=1;" edge="1" parent="1" source="FkVrkXXSFXvnLhJ2IwDE-1">
          <mxGeometry relative="1" as="geometry">
            <mxPoint x="440" y="270" as="targetPoint" />
          </mxGeometry>
        </mxCell>
        <mxCell id="FkVrkXXSFXvnLhJ2IwDE-1" value="Azure Databricks" style="image;aspect=fixed;html=1;points=[];align=center;fontSize=12;image=img/lib/azure2/analytics/Azure_Databricks.svg;" parent="1" vertex="1">
          <mxGeometry x="640" y="120.00000000000001" width="62.8" height="68" as="geometry" />
        </mxCell>
        <mxCell id="9N5VcvwG8qzn36j6Q9Zj-1" value="Azure Data Lake Storage" style="image;sketch=0;aspect=fixed;html=1;points=[];align=center;fontSize=12;image=img/lib/mscae/Data_Lake.svg;" vertex="1" parent="1">
          <mxGeometry x="422" y="280" width="38" height="50" as="geometry" />
        </mxCell>
        <mxCell id="9N5VcvwG8qzn36j6Q9Zj-3" value="Azure Data Factory" style="image;sketch=0;aspect=fixed;html=1;points=[];align=center;fontSize=12;image=img/lib/mscae/Data_Factory.svg;" vertex="1" parent="1">
          <mxGeometry x="160" y="280" width="50" height="50" as="geometry" />
        </mxCell>
        <mxCell id="9N5VcvwG8qzn36j6Q9Zj-4" style="edgeStyle=orthogonalEdgeStyle;rounded=0;orthogonalLoop=1;jettySize=auto;html=1;" edge="1" parent="1" source="9N5VcvwG8qzn36j6Q9Zj-3">
          <mxGeometry relative="1" as="geometry">
            <mxPoint x="420" y="305" as="targetPoint" />
          </mxGeometry>
        </mxCell>
        <mxCell id="9N5VcvwG8qzn36j6Q9Zj-26" style="edgeStyle=orthogonalEdgeStyle;rounded=0;orthogonalLoop=1;jettySize=auto;html=1;" edge="1" parent="1" source="9N5VcvwG8qzn36j6Q9Zj-6" target="9N5VcvwG8qzn36j6Q9Zj-25">
          <mxGeometry relative="1" as="geometry" />
        </mxCell>
        <mxCell id="9N5VcvwG8qzn36j6Q9Zj-6" value="Azure Cognitive Search" style="image;aspect=fixed;html=1;points=[];align=center;fontSize=12;image=img/lib/azure2/app_services/Search_Services.svg;" vertex="1" parent="1">
          <mxGeometry x="890" y="280.88" width="68" height="49.120000000000005" as="geometry" />
        </mxCell>
        <mxCell id="9N5VcvwG8qzn36j6Q9Zj-7" style="edgeStyle=orthogonalEdgeStyle;rounded=0;orthogonalLoop=1;jettySize=auto;html=1;entryX=1.011;entryY=0.584;entryDx=0;entryDy=0;entryPerimeter=0;" edge="1" parent="1" target="9N5VcvwG8qzn36j6Q9Zj-1">
          <mxGeometry relative="1" as="geometry">
            <mxPoint x="670" y="220" as="sourcePoint" />
            <Array as="points">
              <mxPoint x="670" y="309" />
            </Array>
          </mxGeometry>
        </mxCell>
        <mxCell id="9N5VcvwG8qzn36j6Q9Zj-8" style="edgeStyle=orthogonalEdgeStyle;rounded=0;orthogonalLoop=1;jettySize=auto;html=1;entryX=0.488;entryY=-0.04;entryDx=0;entryDy=0;entryPerimeter=0;exitX=1.008;exitY=0.535;exitDx=0;exitDy=0;exitPerimeter=0;" edge="1" parent="1" source="FkVrkXXSFXvnLhJ2IwDE-1" target="9N5VcvwG8qzn36j6Q9Zj-6">
          <mxGeometry relative="1" as="geometry">
            <mxPoint x="680" y="220" as="sourcePoint" />
          </mxGeometry>
        </mxCell>
        <mxCell id="9N5VcvwG8qzn36j6Q9Zj-9" value="" style="shape=image;verticalLabelPosition=bottom;labelBackgroundColor=default;verticalAlign=top;aspect=fixed;imageAspect=0;image=https://cdn.icon-icons.com/icons2/2699/PNG/512/apache_spark_logo_icon_170561.png;" vertex="1" parent="1">
          <mxGeometry x="479.61" y="120" width="60" height="30" as="geometry" />
        </mxCell>
        <mxCell id="9N5VcvwG8qzn36j6Q9Zj-19" value="" style="shape=image;verticalLabelPosition=bottom;labelBackgroundColor=default;verticalAlign=top;aspect=fixed;imageAspect=0;image=data:image/png,iVBORw0KGgoAAAANSUhEUgAAAv4AAADkCAYAAADgtyBtAAAAAXNSR0IArs4c6QAAAARnQU1BAACxjwv8YQUAAAAJcEhZcwAAEnQAABJ0Ad5mH3gAAIQUSURBVHhe7Z0FeBy3t/a/y/e78F3GPzNzmSGFlJkxTTGltE3KlDKlDTOjY2ZmZmaGZTuJw4nhfHq1O+PZXRnWsR3be+Z5fk+ykkajGY9Gr6Sjo/+zv8dGDMMwDMMwDMPMblj4MwzDMAzDMIwfwMKfYRiGYRiGYfwAFv4MwzAMwzAM4wew8GcYhmEYhmEYP4CFP8MwDMMwDMP4ASz8GYZhGIZhGMYPYOHPMAzDMAzDMH4AC3+GYRiGYRiG8QNY+DMMwzAMwzCMH8DCn2EYhmEYhmH8ABb+DMMwDMMwDOMHsPBnGIZhGIZhGD+AhT/DMAzDMAzD+AEs/BmGYRiGYRjGD2DhzzAMwzAMwzB+AAt/hmEYhmEYhvEDWPgzDMMwDMMwjB/Awp9hGIZhGIZh/AAW/gzDMAzDMAzjB7DwZxiGYWYEVksXFVZUUU5pOTW1tijTdDusFJedT0EJ6dRjCI9Iy6bQ1EyJ3W5xO4dhmKmntzWRjlQspaPln4r/J4kwq1ea8XKk8hs6mX6b4FY6YK5QpvEE6U5m3CHPOVS3XYTNzu/EuIT/C1+vpW/dOs+L79z2GP3i/gV051ufKM87k9Q0NijLDH5895P0x3kL6Z0NO0WjwQ3CTKXH3EBd265Us/0q6tp9M1kzvlSeyzDM9KWlvY02BMfSN7vC3VgVEEXJ+UVuaYsqq/X41fuiqKfbGb4qIFIPt1rNbucwDDNF2NvoZOq1NBjyD0SB/8eNweD/S6eSL6f93adfP09k308U9Ocy34OduSJs9E7FwY5Mcc5fynOOlbwlysHCX2c44W/k3MdfVp57phhJ+BtBB8Bk7lTm4QvzP1lGZz32kvxXFc9MPCMKfwOWpHeV5zMMM/1o62ijVXuHRLuKzKJSPX1BRZUeviEkjoU/w0wTIMAHwv7DTeyrGAj7VyG6Tco8xgoL/+E5beGfnF8oRTUorKykW1//SI/7bHuA8vwzgVH4X/PSu1ReVyspqa6i6Mwc+v2jL+rxv3vkBdEwnN5Ld/ZjC2VeeB6qeGbiMQp/S9rH4nejiwZyNKRR145rnPHbr6b99tPv3DEMM/mkFRTrgj08JYtsNrM01SmoqNTD1wXF6AK/p9tKDc3NVFZTR3aRVsuHhT/DnEHsbdQf8wshqv9MCuv+qO9Rb1MEHTQVCYrF/8NpIPw/ZZwz/runJf5Z+A/PaQv/8tpat7iiqio97uqF77jFAYfDQkk5hbQlMlbaaeIj7ZlmMjAK/5te/cAr3iEakrkvv6enCU/L9EoD6pqaKDgpg0KTM6mlvVWZBnz7tsdkPqMJfzyPiLQs2peQTjllU/c8ZiNG4a8y6bEkvq3Hd7cPjRB60uMwk6MuXhnnaC0gR2UEOZrFh2SsHwVHFzka08lRLcSJpUmdZhw46pJEWSKdZVHEM8xsICo9RxfsNY2Neji+lSHiW7wvIY2CEt3t+VVMpPCHSWi9aAvKamqpucW3Ol1VX88mpYzfcbTyCyGq/0KK6lNJl8iOgGeaA5YaXXgPig7C/u4urzRaukMNe6m3MUTko9ZhYxH+ve2pdKhuK/V2ZMt4Fv4jMJLwx4IrLe7y597UwzFCM++jb+gn9zypx4NfPLCAFn69Wi7IQrqU/GI9Lj4nTz8/vWAoHJRU1+hxn+/Yp4dnFJfo4UZGE/6gtaNNrlNAmisMZQdJeUV0yTOv0bddeQCkxT0WVg4tHLn9zY/1eE++3B2sp7PaTPTwB0vpB3c+4Zbml+J5IB13AHxnNOFvjnreGb/jWupxjfg76pP1cyDKrdnLqWvXDXJNgPFce8lO6tp9k55WItJZs1d4fRxMAXfJeGvmV2Qv3u5+nsjXkjTUIe6xtQ/FqfAoB94LqzgfsxZu6fbcJsq4xy0tw8wGEnMKdMEenJgxqsDvNHXQst3O9Jgt0MI9hT9mdbV0u2NTvPINjE/T0ze1DomLuKw8kVeUHgfWBEbLtst4fmfXUDm6TF2UItqQlS6TJYvl9GaUGWam0Rd/jhDUf0aDQX8thHulMg040FUshHqeBINmxriDphLqj/2l6BQ4Bb3sIAT9lehIXEwHzOVuaUcS/keqV9NAxP/oeYD+qB/S4frdLPyHYyThvy8hRY977KOlevj9732hh6tYExShp/3pvU/LsBeWrtXDXl+zxS39+tAoPe7edz+XYTDX0cI8GYvwBz+++yk9HcQ5wlrb2+iHd7l3WIz8+sHndA8TYxH+druZ7nrrU2UajY1h0XqZmLHhZuoTv1iKeg1rygcifI6Ms6Z+rJ9jFP6W2Jf1/xsFtxT9WrgCa/J7elqgCX/TvrtlPp7pgS1/nUzri/CH6DeHznOP3znX7be9fKhzyTCzgUbxbV1mENlrA2MoPruA2tvVXn3GKvwRtiUsXg/rMg2Z/2EGWBPpu6KHOgUxGbl6erBsT4Tb76TcoYXGRuEfnTE0awFY+DP+xAFbky6o+6J/IgS17+8/RvkHQ//ZTawbGQj/L5FmSI8OJ/yP1KwV4c6ZB08Gg/9G/z8Lfw+Mwn/+J8vp5eUbJPe88zl9/87HZfgP73qC6pudU6C1TUOi+8KnFlNzW4sUMRi118K/d8d8srjs6i979g0ZhtkBbSbgqhffkWFa/g+8PzSi++N7nGL90Q+/1sM8Gavw/9l9z+jp2jvbZdidb36ihwUnp8nZCywAfvGbdXr4qsAwmbayvo7SCov08GtfepcKKiokzW3OUSOk0eLvf/8rGY7nkVtWpofjeaCDoJWLGR2j8FeyYy7ZireLyjz0XI3C35nmGrIkLyFr7hpnnvYOt3hHbSJ1i+t0N+c6ZwZc4d2thXqemvAHlsS3qLuzinosLWQv3aOHm4Lud6YXH5butmI37GUBQ+mCH9TzddQl6OGW+Fep21Qvw2G21LXnFmec6Cj0mJ3hDDNbKKuu1YW4BjoDW8IT3GZ/gS/CP6ukTA8rr63T08JlqNbZyC11jiRWNTToYfvi06lDCHuEQ+DvjEqS4StEGbEGQQvXygGW742giNRsOfKPjoV2LYaZ7RzsKhkS/onneQn/47mPU3/MzwQ/deNYwQu6+DauDzhWuIgOdBWJfAvoVPJlevjxnPl6+64S/gesdW6dh2P5L9DBjlyRT5F0K2rsELDw98Ao/FX8+qHnKDoDNlPO9GZLl3S5llJQKG3ktXCI3d89/IJ+Xlun0+Zr6e4QPaym0SlifuAS/J9uc5r1/Eh0LCDAsU5ASxuUlKbn7cmYhb9rtgFoH/acslJR9gJZ/m5RZi0tFpdpaRcuW6+Hd3R26OEqG/8uc4f+PNo6nJ0LgOehdWKAcQSKGR034b/7JimaNXTTGCHW7SW79XPchP/e26XQN+bpqArX422G80BPa54eZ03/VA83Cn8sLjaeYw5/whmHBcaGcI3uphxpioQ0ZlHuHttQecxB9w3l6zEFai/dq8d1i3syxjHMbACmOXllFbQ1IlEX0xrxWfl6Ol+EP2ztVwY4R+33xKXqI/v74obMfDq7nN/hmHTXaL/I22R2r3/Vhk5BZrFz/ZBR+C/fHaFfk2H8jYOd+brwP5V4gS7ONU6mXSfinOLdyPHMu/S0cPWJsP7I79J+h0EbOcxytB9xgyH/KH47NZVK+B+u3aaL+5Np13uV47joaGjnsPD3wCj84blnfWgkXf6cc5Qe5Jd7b5aAUe3nl66lK194S5rkaGgj+ABu25AWIyaa7Xtibj7tS3SaD/3knqdFJ8JEP3eNyiPumz3B8v+YYRhJKI9V+P/o7iGTHm3kBmyPjpfmORc+/Zpe9t+IDo6W9rmvnCPEYDThD/A8cM4lC153ex7aeaBLNGCqcxk1I9n491iayRyz0Bm/Yy51m5yje0bhb0v90O0cADMeLb7H4T09qYv0sMf1MN3UJ/A+t7TAkvCanp9nXE9n1dAswt7bqMc6ZMqABcfaeaNhL9vnli/DzDawHis2U3z/XWIbArtdG4H3QfiDXdHJejjaEIzGa2lDkjL1zoAx3UhEpufIc4zCPzw1y2sNAcP4DbZWXfj3K0x9DnYWUG9rguRQY6CeVhP+GKmnoL9yCvKCF70EeV/8WSLO2XE4YHLWeZXwP1b6jghzCv/DNTC3dc/nYEeOfm0W/h6obPzhBUcLg2mMMX1Leyv94v4hE5q5r7xPd7/zmUQLA5rwB2fNf0mGvb9xNz205Ev5/+dcNv+3vOZ0Gfruhu308Adfy/8jTDtXxViEPzaJ0bzx3Lh4SASic6Mt6kXn47Y3PpZlv9plfgR8Ef6Nrc1uawn05/G2+/Ng4e8boy3uhVcdLd6Wu9oZZhD+MMXxPMeaskSPH1H4h87Tw3ThH/SAW1ownPBH2U2B9zrjdt1I3Z3ui588hT8WCGORr4ruxgy3cxlmJgMvOBV1dfJfzzjsxqsJ7sziMhnmq/AvF3lro/WlNbVuZj4l4reWbme005xn+R6nyc5w5Je6ymEQ/mkFaqcTDOMv9Mf9TorzweC/1cW5imPFr+mCXRf+llpd+B/PHTLn0eiL/5PMG/FYHAyRrxT+JW8bhD+sNDyFfzYL/+FQCX+4pTzniUUy7Lu3z6eS6mo9/ZbwOD39EiHktXCYzWhCGxiF/wIhpBGGDbXOc+Ublpou477cFSR/z3nxbX2U/IudI49yjib8sb4Ai3S1NOlFQy/mbx9+XoZ9/47HqbVjyLvDl7sC9fTDCf8bFi3RwzW+2uWcpQDGRcp4hlo4YOHvG6MJf3tFyFB8pnPh+WjC31EVpcfbcla6x9XG63HG6/kq/DEbYQp+wBm++ya39QJG9DSCHru7qUF3VzV1d5RLPOMYZiazIWRox154xzHG5ZRW6HHaJl6+Cn+wLihahu+NS6W9sany/yv2RJLNkE439RF4lgPtR1tnu0Sz32fhzzBDHK38Shfdw+3Oe8BcqQtv4G7q83cyDL7+jS48D9iaaSDs35xxof9E+x1O3aQ09anbrud/MvkKkbf7YN6JnHn6OSz8PVAJf7AlIlYPv/2NIc8pH2/Zo4e/v367DIPof2/DDj0cGIV/QfmQ/bzWOahtctpLV9YNLY7V8PQu5IlR+MO8JiAxVQITHngM+sFdQ241r1/0vpufZc206HtC+GNhMsIKKiv0DgEwCn+gmQz9/L4FtDEsSl5LG7FatGKzft4nW50dISxifm2Vu+ciFv6+YRT+clFtS56Tpmwh6ndLG34t3lGbIM8ZTfjD7acWL9OIzkN3RwU5qqOpa+d1ejgEt3aOL8Iftvq6CZLAlrdGlsmIZs/YXZeopzNHPCXFvgxvyhgqy67rpacg7XoMM9MxetLZGZVMre2tcpAEziO0Bb8Yoe90mXqOR/iHpWTqcVigi3/jDOsGANofbSZgZ3Syvj6rvqVZL8fqgCjSNhJj4c8wBmwt0sxHG5nvi/8DHalaQb1tCdTbEkNHyz6mwdD/J+M0jMK/L+73+rknsh+ig+1Z1NsaT31JF+rhR0ve1cW6SvjvRyfBsEnYiYw76GBbsiCFjucv0NMDFv4eDCf8YR+Jhb0Ix6g/FjwhPL+iQk8Pzn3iFfrdw8501ywcMpcxCn/8kX5rWPh76bNvGOJsdNEzr+pxFz61yC1OhVH4a/zXLY94hd32+ieiUXDvBV6z8F09HiY6Fz69WPrw/+NjL8lFxgj3FP5vrNmqn6OBTcsQl5Jf6BaO56F5E7ro6aH7YuHvG0bhPxKWuKH3ZTThL9PUDJkIqdBmDzR8Ef7d5nr993D0dDq9lkh3npEL3ONdpkYa2NTLeD2GmelA0G8KiZMCejhgYjOU3nfhD3fMmqjX0AaajEQZTIvAst1D7jxxfl7ZkIkeC3+GcQemNAMR/6uLaxWnEs8T/zqFvFH4H7A10kDYf7ilNQIvQPutQ565lMJfhBsX+HoyGDLU8WDh78Fwwh/A/7wW99AHX8kwjO5/unU3/cTgMQc28wuXbaDCyqGdft2FP2z5P9TjvtkT4hb37Fer9bjFKze5xalQCX8NrCd4aMlSikjPlOLK81w0Cjcu/sDtHAj0VCHg57js/D2Fv3T3+fU6+o1hVkAT/hjdf1N0DGA6pMXheby+egvFZubqYSz8fWNE4b/jGjIFP0S2AvGuGGz1xyL8AcS/aZ9T0GuY9t4uN+jy/DhMlvAHeD9tcpOxG93SmMMeE/fCop+ZncDDWlBiBq3w8Ju/el8UpXqI6vEIf7AlfMin//rgWHLYvdsCzASnF5bI62ppwabQOCqt8XArysKfYbw4YKmiE1n30WDw33uI7r+jEzmP0n7p899lz28Q/vJcIf5Ppl5Dg4FDwn0w6C9FfqKtNfjwB8MJf4CNuvqjvi/inB0M7BJ8KvkK3rl3MoBf+tT8IimwNZ/9M4nS6hqKysimvPIKOdWsSuML8BqUkJNPibmFM/J5+CPSzKcugbpbCsRHwVsYTCXdzTmiLPHSj/9s/UAxjBG7+GY2trRQZV09Nbs2TTwTYPCmqa1Fmm+2uPZnYRjGBxxddLA1mQ437JbefDTb/LGAzsOhxiDqbY4U543ftLW3PZ0ONQSIjkGe+H1m2/OpZEqFP8MwDMMwDMMwZwYW/gzDMAzDMAzjB7DwZxiGYRiGYRg/gIU/wzAMwzAMw/gBLPwZhmEYhmEYxg9g4c8wDMMwDMMwfgALf4ZhGIZhGIbxA1j4MwzDMAzDMIwfwMKfYRiGYRiGYfwAFv4MwzAMwzAM4wew8GcYhmEYhmEYP4CFP8MwDMMwDMP4ASz8GYZhGIZhGMYPYOHPMAzDMAzDMH4AC3+GYRiGYRiG8QNY+DMMwzAMwzCMH8DCn2EYhmEYhmH8ABb+DMMwDMMwDOMHsPBnGIZhGIZhGD+AhT/DMAzDMAzD+AEs/BmGYRiGYRjGD2DhzzAMwzAMwzB+AAt/hhmFHlMdORrSyF62l2y5a8mS9B5ZYl4kc/jjZAp5lEzBD5Ep8F4y7buLTAF3UteeWwW3ONl1gxotXqTFOfJc5IG8RJ7IG9ewpn1Ctry14toB5GjJk2VRlZFh/BmHw0KtbS1UXlNLWSWlFJ2ZS8GJGbQzKpm2RyTRlvAE2hQaJ1kfHEvrgmJoTWC0ZPW+KFoZEOkFwrU0SI/zcP7m0HjaKvLbHplEu2JSKCwli+Ky8ym7tIyq6uupua1VWUaGYYY4aCqj3sZQOlrxJR0rfJlOZNxBp5Iupr64P1B/zC+pP/qn1B/1fRqI+B8nYf+mMxjyj4J/8EJPE/4f8pz+yO/IPPqjf0Z9sb+ivvg/0qnkK+lEzsN0tOQNOlK9gnpbE+mAtUZZxtkKC3/G7+mxd5GjPoVsOavJkvA6mcLmO0X47pupa8c11LXtyunF9qvItOdmUcb7ZFktsS/LDomjKVvcS6fyHhlmptPW3koF5ZUUkZpNu6KTaWtYvBTkK/ZG0je7wqcdqwKiZGdhm+gk7BYdhLjsPCqtrpH3obo/hplNHLA106GGADqW/zydTLlGCO/fCiH+XRoM/ScaDPorosD/M61AmdBp6I/6oex8nEy9RnQO3qbetmRxP1av+5vJsPBn/AuHiRw1sXIk3Rz+BJn23i7E9FXe4noUTBipD3mYzNEvkDXpbbKmf0a2zK/IlreObPkbyV66l+xlgSMj0iCtRJxrTflA5PUWmaOeI3PII+IatyivPSLoFATcKe/NmvoROWrj5T0rnwXDTFPaO1oprbCYAuJSabMQ+Cv2RCjF9UigQ7AxJI4C4tMoOCmDwlOyKSG7gFLziymjsJRyisuooKJqVLKKSmX6lLwiisvMl/kEJqbLEf9NYXG0bBxlQ6cAswYBcWlypsBs5g47M4NxdNKRmg10IvNeIZp/JwT0v9Ng4J8pBfZwIP1A+H/KkfmTyZfSyYzb6XjeU5JjQoAfK3mHjlQtEywfETmDINICnHsi8x46mX4TnUo8j/pjfkEDof+ivP5IDAb9JQ1Efov64v8k8nyCeptCaX+3Wf0sZgAs/JlZT7e5gWw5K8gc9hh17bxOLZg1dt0ghPfzZM34guwle6Rw7m7Kpu72UuruqqYeWwf1dE9d7x/X6rG2UrepTpbB0ZghyhRHtqJtsoyWiCedpkOqe9EQ92wKnSeewUrxLBqV12GYM01Zba0UwhjFV4llnd3h0nQnNCWT0gtKqLiqmmobG6mptYXaO9vJYukiu92ivMZkYbOZySyu2yau39jSTNUNDXJ0H52M0ORM2hwer74XAxtCYqXZUI24F9U1GGY6cbCriE7kzpdmOYNBf6MUzBoDYf9Cp5IvEaL5STpS+Q0dathLva1xdLAzmw6YSmm/vU15jUmj20QHrA3i2mV0sCODDjWH06H6nXSsdAkdz3mU+uN/T4PB/1d5LxoDof8kOgJ/kCZD+20t6utMU1j4M7MWR10SmSOfEeJ3jrcY3n4VWSIXkDV7JTlqYqi7tZB6LE3KfGYCKHt3awE5qmPEPYlOTvjjw9z31XI2AKZNqnwYZiqxWs0UnZ4j7elVYhimMtHpuVRQXkV1TY3U2dVB3Y6ZOe2OdQhtHW1U3dhAOaUVFJacJdcSqO4bnZ/kvCJyTHEHhmFG43DNeil4BwP/3EsMw1wGAv9Y8WtCSO+SovqAbYa2q91WOmCuot62JDpcu4WO5T0rZwxUMxmDwX9DpxIvmDFmQSz8mVkHRLAl+gUv0WuOeEqOlHc35/qFLXyPrV3OVtiKtot7f9rreVhiFso0qnMZZrLBaL2nff5aIXjjMvOosr6eukz+Yf7S0dlOZTW1FCU6QJ7PAx2Airp65XkMM5UcNJfLxbHkIXxPJV1ERyq+oINCIMPkR3XubAIzBYeaw6QpUV/cb72ex8m0m2i/fXqv42Hhz8wqemxt0jOOLnD33CKE71bq6apWpvcnerpqyVawSa5P0J6PKfRR8bHuUqZnmMkC9vJGgQsTF5jrTKUZ3XQEJkoVdXVybYP+fHaHyzBVeoaZCg5Y62kg7D90cTsQ8b9C7C8V4bXK9P7Ewa5COla0mAZD/0F/PvBOtN/RoUw/HWDhz8wqsLhWE7XW7GWyI6BK589gzQAWI2vPyS46Rqp0DDNZrHKZuGyLSGT3l8NQWVdPa/dFy+eEBc493ep0DDPZwNUmuUx7jpa+T/vtPFPsyQFLDZ1Iv1l/Toca9ojw6TmQwcKfmVVYkt9zCtrtV1GPmafIhwP7AXTtuFY+K0vKh8o0DDNZLNvtHM3OLa1QxjNOQpMy9ZF/f58NYc4c/dE/EWL2z6QN/34bLz4fjoOdufqiYCxi3t89PdfosPBnZhVYqKuNZMMXv6M6SpnOb3GYyF4eTKaAO/TnxMKfmWo2GDz3wMWm1couZ420tLfKDci0Z8TCnzmTHK34gijoL6SghbvNQw2BIpzfRx1HFx2p+JwGQ/9ZPiMW/gwzxVgzvtRFrewA7LuHbPkbqLu9TJneH4ArUFveetkZMj4bwMKfmWpg3rM6YMiTDxa1wj8+dr6F9xvVObMduAQtqa7xEvwaLPyZM8nJ9BvlqL8mbPujf0RHSz+kg6YSZXp/AF58jhW+RAPh/64/Fw0W/gwzxdgrw5Ui17TvbrKmf0r2ilDq7pi9HQF0cuzlQWRN+1Q8h3uUz0Hb04CFP3MmgNeeICFyNbMfjRV7IikoIY2yi8uorqlJCmLV+TMds7lLdnTSCoppb1yq13PAb2xApv1m4c+caY5WfC5E7n95idz+6B/S8bxn6HDtRrnYdbbOBhxsz5CLmk9k3U8DYf/p/RxifqbvacDCn2HOEBC/5sgF1LXjGi/xK9k5l8zRz5M18yu5k66jLll0CCpnhqcbUUa5qZcos71kt5zpkG47d12vvtftV8l7tZeHSJMfrWPEwp85k7R2tFFkWg6tDRx+465tkYkUnppNmUWlcqOvptZmMgnhrMpvOgGxbjJ3UmNrCxVVVkkXpiFJmbQ+KFZ5n2BTaBwl5RRSp6lD7l6shbPwZ6YLR8s/pr44+PL/Sy/xC7A77qnky+h4wQuE3XYPNQU7OwQzoV21d0iBj03GjpR/TidyHnPuWzDMhl7Y1fdUyhw6VLtVCH2T3jFi4c8wZ5geS7MQx7vIErfYOdrtKYoVmALulL7/rcnvyY6BTZxvr4wgR20CdTfnyE2/urtq5K66Pda206vk4lzk0WNulB2P7vYS1y698WSvCCFb8S65MRfKYg5/ikx7blGW2RNTwF3inl8V975T5O++uyALf2a6UdVQTzEZebRdCP0VeyLcBLEKbICFXXFhHhOfXUAZhaVUUFFJ5aJzgB1wsYsuOhaYXbDazKe9IZbdbpbrEbCRGPJt0Hbpramh/PJKSssvptj0bNoXnyZ3F14+hnuAmdOu6GRZfpTXeD0W/sx05qCpjI6WfiBE/pVC8P63lyj2BJt+9Ud8i04lnkcnsu6j4/nPyT0ADtduosON2M03XojuNDporqADwCbqw+m8991mmccBSxUd7MyXeWOX3sMNu+hI9Uo6WvaRLMOJjNvlHgUDBhv9keiP+p40fTpSJcS9h+dAFv4MM02BVxtpCpP6IZmjnpfrADAi7imcxwNEuUR0MExBD6hBnCudKg+f2X61zBOzG7gne9k+0YloUN67Bgt/ZjoDW3+I98TcQinst0Yk0qphdvj1lVUBUbR6X7RkU1j8sGhpYH6kysdXsK5hR1SS3LUXsxfoOIwk6Fn4MzOJg11FdLTiSynqsZNtf8S3lTv8joeBsH+V9Ef9gPqjf6wEnQ8tnSoPXxkM+mtxve+Le7mQTuQ8JDsL+9EZUdy7Bgt/hplJiEra3VpEjspQsuWuIkviW6JT8ByZQx+THQPjxldTzu6bZBlQFnPMQlk2a9Y35KgKp+6O8nF9YFj4MzMRmM7UNjVSRmEJRWfkUmBCOu2OTqEtYQm0JnDiRLqvrNwbSeuDY2lreIIcwUdnJS4rn/LKKuTmZPZxrFVg4c/MeBwm6m1LkyY/xwpelDvbQkj3xf5ajv7DLMhTcE8Fg4F/IToI/yKFPXbgPZVypdyv4Fjhi3S4bhMdNBWL8vte51j4M8wsBOY4jjbRQWhIkcLbVrRDdBRWky1nBVnTPiFr6kdkSXidLPGvjkzCGzItwLn2gg1kK94h83TUJ4trFMtrqcowEbDwZ2YrEMnwHATTmfLaOsqvqKTsknJKyiuk+Ox8ik7PlWsGIM5HA+sPkD5OnJeSXyTzKayskhtsYfFxZ2e7NAFSleN0YeHP+Asw7+mFKU5jIB2pWUtHyj4SHYWFkhPZD0pOpl1HJ1Pnjkz6zXp6nHu09F06WvGZNCc61BhEvR1ZcidiVRkmAhb+DMNMW1j4M8z0hoU/w8wsWPgzDDNtYeHPMNMbFv4MM7Ng4c8wzLSFhT/DTG9Y+DPMzIKFP8NMMZbEt6WYhd/+7o4KZRrGucGX5u/fmv6ZMg3DTBbaZlUZRaUsaIeh22Gl0KRM+ZzgFpSfE3OmGIj8rhSz8GV/wFypTMPYpDvSweC/l8/qcNUKFv4MMxXowt+Fyn+9P9Nja5P7GQxtaHYVdbfkK9MyzGRh3KUWXnla29tY2LrAc2hua5HegbRnFJORSz2KtAwzFWjCXwOLb/fbR3Zr6U8csNbRseLXpPtP2UEK+ks60IV2dXp+01j4M7MKT+GvYU16VwpcCF/VebMZuTFYWzFZ4l93fy5C/NsKNivPYZjJxCj8NTaGxlFJVQ2ZLV3U7WedAGws1mXupKziMloV4O6OdHtkElmtk+M1iGHGgqfw1zieM1/ucrvf7oeDa7ZGOtiWLncopsA/05/JYPDf0eHajSLN9BztByz8mVmFJvzl5liB94n/z3EXuwJz4L1S8HZ31QpR3Eo9DpMyr5kI7gUzHD0dZeIeN4lnoNilePtVZAq6n7o7q5R5MMxkowl/iFrV7rbLRFhUeq50l4mOwGS5yzwTYEQfPv2xH0FpTS0FJaZ73T/AJmNwHarKg2GmEk34D0T8Lw2E/zcNukSukf7YX9LRss/ogLlMiOIm2t89S9pVDEI4OqUL0IMdOXS0+DXxDP7N6/4Hg/6K+mJ+QQcs1ep8phEs/JlZhS78hbDFb4hbbHjVtfM6bwFsABtj2XJWkr02nnosjc4Ogb1j2nUKIBp6HGZn2VBG7CnQkEbWjM/ILO5ZdW86O68nS8JrosNTo8ybYaYKTfg3tDrNBTKKSuTmW6qZAA3seosdb0sqK6mjs50sVhPZhIDGDr/TzUwIMxZ2u0WWz2IxSVOm7OIy2hefprw3jeW7I2hdcCyV1HAdZaYPmvDvi/udFPS9benUl3C2HN1WdQI0+uL/IITym3SoKVwI4ho6YGuk/fZ2IaS7lNc5Y0hxL8pkbxVlbBCdlyo63LCPTmY9IET+/4p7GRrRN4J7Hwz5Rzoh0h2w1Knznoaw8GdmFZ7C3whG+G0ZnzsXtW7XbNzHhjniaZH3W2TLW0f26hjqbs4XHYQmaTrUY2t3AjFu7xR0OcHo+0ho6eQ54lyZD/ITCEHf3ZxH9vIgeU1LwltkCn5YWbZhgR2/EPu2zC+p2zR5G5YwjK94Cn8jBeWVtDks3ucdeGEqtDsuhZJyCuVuuRV19dTc1kZWVwcBYOYAwLRGIjoNo+JKq52r5YV8kX+5EOkYmcfGYHtjU2ltYIyyfCrwHFbsjaRdscmivDNHODD+hafwN8b1tmcL4XuvEMD/IEe9R+oIGBkM+hvZeTiReRcdK1xIh+t3irxSab8Q3vtt4rsA8yFJm6uz0OGicxRc6eR5QOSB/GxNdNBUSodaYuhw5Qo6VvQqnUy/kfqjfyLKoxb2nkihH/w38l6xOZjM1/AsZgos/JlZxUjC35MeW4cQ1sFkjX3ZKZK3Xy3O9TYNmv6IMqPsO64VHYQ3yV4ZLjsTqntmmOnASMLfk8aWForLyqeNIXFyRHykWYHpzDJRdpR/Y2i8tOVv6xBiRnG/DDPdGEn4ewKTmCMVS6kv6VIp7rHQdTDwz8fcIZgOSIGPMqPswX9Lx7Puo0N120a995kCC39mVuGL8B8JR0se2cv2kiXpXTKFPOohtM8c5sB7yJr0nihbAHW3l4sP0fRdQMQww+GL8B8OjLhX1tVTUm4h7YxJphUei2LPFKv2RVFwYgalFRRTVX29LKeq/AwzU/BF+I/EodZ4OlL+KZ1Iv5n6o34s8hzbSPtkMhj0F9Qf81M6nv2AdMF50FQsyjq7nQuw8GdmFRMl/D2RtvVCZEtgYy8ZMtnBWoJudBbqEp2U7nHDlrNC4hlur46W6eFXv7uz2mn6o5sDua4jr+tfXk6Y2c1ECH8VznpqlTb28IPf7WG209rRLsU4KKyoovyySh0I9eS8ImmLbwwvrqyW6eubm+X5xvyQv7yO67pcT5nZyEQJfy9QXzB41W125gs7e4nTZKe3M1d2Fg43BEowk3Ck4iud44ULBS+K/3/pFn64bqdM39uZTQcsVU7TH5kn8hbXwbXkNf1z4IyFPzOrmCzhzzDMxDFZwp9hmIln0oQ/c0Zg4c/MKlj4M8z0h4U/w8wcWPjPLlj4M7MKFv4MM/1h4c8wMwcW/rMLFv7MrMKa/qkU/tikqrsVW2ar0/k73c051LX7ZsFNZM34QpmGYSYLbdOuuMw8ZTzjJCAulVbvi5Lw+gHmTNEX/ych/P9MermRG3Qp0jA2Oly3nQbC/o0GQv+ZDlevnrZrCFj4M7OKHnOdyy0nxP/VZIl/jXqsbcq0/ki3uYEscYuHnpHAkvKhMi3DTBY7opKk8AcbgmOptqlJmc5fyS0rpzX7ovVnBFj4M2eKg13FQvT/lRz1hx97eMDBZleqtP7IQVMJnUq8gAYD/0I+I3Ck8hsW/gwzVTga06lr51xd2GKzLlPQA2Qv3Cw6AS3Kc2Y19k6y5a0lU8jDboJfg4U/M9VgI6zd0cluwnZdUIzcmbep1T8FRU1jI+2Nd47wG5+LBgt/5kyC0ezB4L/WhS3828MNJrzoyE2yFOfMauztdDx/AfVH/chN8Guw8GeYKabHVE+WpHe8RC5MgEz77iZz9AtkK9pO3aZa5fkzGblDcdE2Mkc9L+9VKfaT3yfT3juc/2fhz5wB4A4TrjJXKvzvr94XTdsjEuVuuPWzdDYALkKj0nJoa3gCrQrwFvsbQmIpJDlT/83CnznTHOgqplPJVwhh6+5/fzDor4UA/j6dTLmaDld9Qwess28X6oOd+XS05C3qiz+HBiL+R27wZXwG4HjeAhoM/Sf5fxb+DHOG6O6qIXvxdiFyb/MSvzq7bpAzAubwJ8ma9gnZS3aRo7VA9uhVeU4LRNkcjVmirDvJmvwemSOekfeAe1HeowBC327o7JgC75XhLPyZMwlG/6sbGiggPs1N+BrBrrfrg2Joe2QSBSU4N8fC5l2dndO3jkKod5o6qaS6hpJzC2lfYjptEyIfMxuqe9QIS8mixtYW2TFKKyzWw1n4M9OFg10FdLT4LSFy/5+X+NVAXH/0z6gv4Ww6kfuYEMJLqbc9XbRdHco8pwW2FuptCqdjZR/RyfRbhcg/S3RofkCDIX+vvEeA+MNVq5z7BYg8BsL/S4az8GeYM42ogN2dlWSviiRr0tsjCmQ3dl1PpoA7hKh+kEzhT5Al+nkptK2ZS8mWv5Hs5UHkqI2X5kXoLMhNuEz11GPvVJfDiLVFpsUIPc511CWKvOLIXraPbAWbxDW+kjsH45q4tinkEeco/c7r1WX1ZNeN0ssRNgnr7qjw+gix8GemG9jltr65iVLzimhTaLybIB4OdAowQ4D0OyITaU9sKgUmpFNsZh4l5BZQXnkFFVVWyRH2JiGom9payGTukqjKYMRht+hpW9tbZdmQD/LLLC6VG35FpGbTPtFp2R2TQtsjEmhjSJzTPt/luWg0cF5OSQU1tjST3WZ2uz4Lf2Za022mg525dKR6NZ1KvZYGg/+vlzD2ZBCLhEP+kfojvkX9MaJjEP8nOpV0KZ3IvFuazhwtfV/kt4oONe6j3uYY6m1Lo4PmSjoIYY1Nt1TlMHDAWi/Twu4e5yKfw3Vb6UjFF3Ss5E06njNfiPqbxTUvpr6438syQKwPBv+dsryeDIT9K53IuocO1e+iA6Yir3aVhT/DTFfQEeiqpu7GDLmDLgS2KfhBb/E8QzCHPkrWtI/IIToNuCd0QEb76LDwZ6Y76AhArJfV1FJiToEQ9Slei15nCmsCoykoMZ2yCkvkbAU6IOhYqO5bg4U/M6NAR6CrkA41hdHRss/kqHl/1I+FEHY3DZoJoIPSH/97Op77GB2uXkOHWqKcHo1GaVdZ+DPMDKMHHQJTHXW35JKjPpnsFSFkzVkpOwbmyAWic/AQmfbc6iW8JwvTnlvENR8W135WCPuPyZa/QZQplBy1CaKMedKUCWVW3ctosPBnZioWSxe1tLfKBbHoFGQVl1FCdgEFJ2bQ9shEWh8c6ya6J5PluyOk+c5u0SnB4mSY9eSUVlB5bR3VNzdTW0cb2TxG8scKC39mVuDooAOmUuptjaVDDQF0pGoFHS9YSCcy7qBTCedSf/SPpQtMT/E9WcDlZl/sr+hU0iV0POdROlbyNh2uWeecZWhLFgK/QpR7fPWNhT/DzGJ6LM2ik1BP3R3l1N1aSN3NorPQmEGOumQpzHWqIt2piRuKa0iV5+BcmQfygpi3tYuP5eRulMLCn5ntQHCbzJ3U3tEuOgptcvagrqlJUllfr4POQ2l1jQ5+a3Ew7UF6mPng/FYh5Ds628ksOh9Yn6C67kTBwp/xK4RQxsLgAzDt6cyTIry3NY56myNEh2GvG4drN7lxqH73UHxzmDynty2BDranybwOmMroALwPjcFc6HRg4c8wPtJjqiN76V6yJr8rF9ua9t3lbtO+/Woy7blNmuWYYxZKO3hHXcLYbOoZN1j4M+MBi04r6uooPruAAmJTaEt4Aq0OiNJ34wUr90bS2qAY2hmdLG3gs0vKpFhW5ccMDwt/5nSBDf5RbbFq3B+cHmkM9uzwyAOx2h/zCzqVcjUdK3heiObIaStapzss/BlmDPSYG8ias0qa0egC31d2zpUuOh3VUaITMPqiPYaFPzN2uh1W6XoTnndW7PF2vzlWsAA3MaeQukzcUR8LLPyZ8XCwI5eO5z5FA5HfEyJ0fPb1gyH/QCdTr6XeptBJHyWfTbDwZ5gR6G4rkTvrqvzMnw7wfGMr2MyzAKPAwp8ZDSw+TckvmhSbebitbONZgBFh4c/4AhbVnkq5nAYD/9JLyJ8O/dE/FEJ2KR2w1iivywzBwp9hFPRYmqQHGk/BPtGY9t4uF8KqyuDvwA2p9pxsOSuVaRj/prCyijZMwSLZ6PRc6b1HVQZ/BqZR2NwLzwgegVj4M8MBv/pwUTnZ3nMGg/5K2tKPd+HrbOdo2RKiIOcuvodrN4owFv4MI/3oT6VXHGCJWyQXzKrK41c4TOSoSyJz1HNDz0f8LeDWVJme8Us6TR0UmJjuJdAnEwjb0prZt4v2eMDzh+vSFXuHTKoyi0qVaRnmSMVXI26kNRmcTL9JbnTFHQCBo0uI/G1yTwCt4zUQ9T19Q6/pCAt/ZkroEaLTlrnUTZBPKXtvI2v2cuquT6YeW5uyjLORHluH3BgMG47JhdKGZ2Lad4/0JKQ6j/FPsIPuVLrC9CQkKZMKK6r8biFwc1urdEmKjcCMzwMLprFLseocxs+xt9LJzLt0sXkm6Iv+CR0rWky9LZGiPP7Trh6wNdPh+h10POdxuaGX2zOJ/aVzY69p3Cli4c9MOrC1tyS86SY6zyg7riFzxFNkzVpGDuxq2yYa1kl2nTkliHvobi0ie2WE6OSskPsOdG2b43X/2InYmrtadgqU+TB+CVxYLt8T4SY8zyQwM4pMy6GC8krpThPuM1XlnmlgYTM6WBjFh9//VQFRXvcOwY89CdAhUOXB+DcHbI3Ul3C2EJrTZ2MseAo6lXSh6AgsokNCFB/szKb93bOgXRX6BW5FD1evpeP5z9Op+LPk5l6e998f9X06WrpEpJ/+gxYs/JlJRYr+uEVe4nP6MYdMIQ+TJfEdKYrtlWHUXZcohTQ29FLd21QDG1+sj0CZHPWpcv2CLX+9KPNbTo9I269S3JeL3TeJv8NiuSHZrOjkMBNKSVU1fWNwxzldWR0YTYEJ6ZSYXUD5okMAt6KNrS3U2dVO9lF2wZ0qrFYzdXS2UV1zk9wTACP5cRnZtDculVaPsOswxP62yES5mBrmPqq8GeaArUluPjWdRP9wDAb9BfXF/YZOZN1Lx0repMM16+lQUwgd7MiiA5ZpYmIqOicoS29bCh1qDKQjVatE5+U1Opl2kxDzPxT3MfxzHgj7dzqZfgsdqt0yozo5LPyZSQPmPZaEN9RC1Fd2XkfH7JVkCX1UHe8rO68n017f1hqYAu4ic+g8ssQvJmvKErJmfUO2gk1kLwuQglpuzqVvzJXm3MxrJJBGpo+X59orw2Ve8EhkzfpaXgOdJnP4U2TafbOyTMNh2nubtOW3Znwhr7Xfwe7YGDWVdfUTJvrr2jqosqlFGTceNoTEyp1xVXEqYBe/OTxemsyEp2RTUk4hpeUVUW5JuTQhKhFCHJ0FbMyFUXdtM6+RwAZexk2+kE+2yC+toEQI+lw5ar87JoU2hsbRMh9mTOAWdXtkEoUmZ8pOjMXCHXJmFOxtQkj/VojOCRD98b+kwe486ddfGe8jffF/FJzlZfoyEoOBf079kd+i/rjfCaE9l45nP0jH81+gY6XvCQG+nA5Xr3FuzuXamEtuyjUK6FjIDb7qdzo39xJ5HKn8WuZ5PO8ZOpF5N51KvkLa5Pu6W/BAxH/L3X6P5T9Hva1JQuzPzHaVhT8zaVgzv1SK0vFwxF5NOI4daKeu7dco0/iE6Ej0tJdQj6WRHEJw27KXkzn2ZTKFPCq9AU20i9FJAZuZibKaw+aTOeZl52ZmVVFyXwTV34NhPGnvbKcVPgjrkdgTm0qDoo4ODA7S1shEZRpfic/Kp26HRe6am15YIl2A7op2imxsEqY6Z7qBzc02h8XTHtE5iEjLppzScmpsaWEvPYzPnEq6WAjQ0xf9g8F/S3SoVtRWUWOt8bonmtNhIPRf6IDJuQj9gKlcCvfjeU9Lkd0f83MaCP93IfRP/zqTjdzQTHSG+uL/QCdTrxEdkWfpUP0uuabC8+8xU2Hhz0wKGL1WitVxgFH2wcEBKfxx2JPfUabzFSxuHXazr24LdXdWkKM6hmyFW2XHwBL3KpmjXyRzxNOig/CI9IMvOwkYjd85V+TpbU8/dsS5yEPkhZkFU+B98hrYvRjXtMS/StaML8lWtI0c9cmibJWijCwcmPEDH/2bQuKUYtVXsDbg6LHjrhpKdPzkSVo2QR0KjNKryg8sli5qaGmWrkeT8grlmoDA+HTZOdgekSgFNxYrw8QGI+yns/kYwPkrAyKlFyLMRmwJS6AdkUlyxB8mSNEZuZQhOigoc1NrC9ltPNPGTAxHS94UAv3PlWLVVwZz7hCav99ZWdG2Jgx5pDkdTiWcKwTyCGZqDjMd7Mynw3Vb6ShG4PMXCHE9V46i98WfTX3oIER+T3QS/kN2JAaD/6/oLKivNRYGg/5S5oFZiP6Ib1F/1A/k4lvMTJxKvlx6Jzqe/wwdqfiUepuC6aCpRJRz9rerLPyZCafH2kJde27xELbjZ7D/lPMDZTi6dt2gTOsrMKdR3cPpADv8HlO9xNFa4AU2LtPikVaVB8NMNpHpOUpxOx7icwpdNXPoiEzLVqb1FYhs8wT7+YcgN5m7JC3tbdTU1uJFZ1eHnsbhmJ7+uBn/AK4hB0P+XilufSbsX4TY73PVUtdx3CY6FROz6dfR0vflwJnqPk4H2OEfFM8B9LaledOZq8cfsDYq82CcsPBnJhxr8hKlyB4P+zM/dn2Z3I/e8p3K9L5zFfV0lCvvg2FmK02trT7Zzo/Emn3RNDgIIx/3A2ETdQ2M5Kvug2H8gb74PwlRPTGLeQdrRJtqmEHXjr7CJydkRgGbfB0wc5s6nWHhz0wo3e3lCnE9TnZe5/okqQ9z8APq83zEFPqY8l4YZraCRaUqgT0eSusaXDXS+6hqblWeMx4wMq+6F4aZzfS2JkyIDT4YiPul92i/dvQdJQr+G+V5vgIvPjN14as/wMKfmVAs8a8pxfV4ONoW4/oiqY/jpsyRXVj6gKMlV3k/s5nujnLRUSujHnO9Mp6ZncA3vEpYj4dtEYmkGOx3O9YHT8w6guCEdOpR3M9sBmZGrR1tElU8M/vpj/yOUlz7zp8ROdJFjVRXWMzQDbbvmrBOxsFOzNL53zq0gzA5wr3bpq+5EQt/ZsLo6apViurxYNp3p+tzNPJhjXleeb6vYLMr1T3NRrCg2Za3Rr93S8qHynTM7GSiRvvhd77dYnXVxOEPe0+PTKvKwxewWLjL3Km8p9lIa3srrQkc2tyLvQD5HxCREyXEB9OuEOretaB3uGOgT/qmV53vK3CdORm2/tMWeyudyLpPN5c6UvnNtL1/Fv7MhAGf8UYxPX7m0OBRb0ExKD5Knsfg8W7q2nGtIg8f2TF3eA8/swQsunZUhpFp7x1u987C33+AJ5+Jct8ZlJTlNXaosvXHsSMmWZmHryTmFCrva7aARcQtQvAHJaV73TsLf/9jwmz7g/5KtJV2V20cOpRt6uF2kf70F/rCkw72HVDd12zigLVOiPyvaCD0n9zun4U/4xfAPaZRUI4XW8xzrk+Q+2HadT0NnDzk+jV09GR9rszHV7ALruq+ZirYQA1egxx1iWQeYeMzFv5nDog57NI6VV5j4PLSU1COh1UBkXTk6DFXDRw6csurlTb/J0+dOm1XmgDuOWeTuQ/+/jabmVrb2yg+J3/EjdRY+E8frFYTmS2TP1A0GPKPbmJyvAwWPysUvcdo/3ELUdS3STSqrgDXgc574lnivNPvcByu3SjuY5a9t44O6WHocN12GogUz8/wnAbF/zX3oyz8mVlPd0elUlT6zParXV8f98NRtkfG23JXK0cVTQHuo9jjAX7zZ6RvfFFmzFb0WFupp7OSbIXbpP9/1T1iNgW7+nbXJ8l9CBDGwv/MEZOZR49+spK+2h1C9ikQ/1uFcFaJSl9Jzi9x1byh4/gJ+O53+rrv7/c2KUjMKVbm5Sudppln7gPRjo3IIPIhGGvr6yk8NXtYr0d4htgTICW/SA9j4T99eGXlVllvy2prlfETQW9b6oSY+Qwq3HfKNrTwUWmWMlj7qQhw9/Ij7f0nYKGvXOSLUf8Z2a6K77G9nQ7YGuhgZwEdLXmD+mN/Je7Lu0M0KP5O2PTroPibDYT/pwxj4c/MeuwFGz0E5vjoLtro+vQMHdi8y7iTbt9hbzOgg/VxbvmMnzlkiXyGbDkryF4b7xTTtnYhrDupxyHEtcMsGuApqswQ9OJa8pq4NsogyrLfVC3KFifKuFx6JBp9gbNzczBr6kfU3TW0GRIL/zMPdqSd/+kqKSK+3BVMDsfkNpDYRdYoMMfDptA4OShoPCAUItOy9DRBid5mQDjWBsW45TVe1gXHUFhyFhWUV1JTS7MU1Ha7Wc6cQGB3T6HQkKIeiOvClArlwIhwY2sr5ZSUU2hKpihvrPI+jGATtK3hCVRuEJNphUOdJRb+04cvd4XQPFFnJ1P8n8y6UwjI0x9172ve5iXsBw7W6eY82OCK+oc239OPqrdkx8Azv/EAF599iRfQsaLFdLghwLnw1d4ihfV+h+jId5umTiSjHuFaDnFNXBsdE1sLHewqocO12+SGXv3RPxflHvnZQ+wPBv+dcy2DdchBxkD4f8l4Fv7MrMeS8LqH2PQd7IKrOsxB97unC7jDOWLhcVgj57mlm2xM++4ms+gkWBLfIlvWUmdnoXQP2StCyF6XqONoTJfec4CjKcctTqYX4Fxb5lKyJL1L5oinZN6qa44JdARERwk7DTvqkpR/L8DCf3pQWlNDj7lExBdC/E+WaIUYXWYQmuOlvr3TVeOGjgOHDnst4FWN+je0tE5IGcYKdu3dFZssd9WNSMum5Lwiyi2toPyySqqsq6Oq+nqdlrZWau1olxjDS6qqZfrMolJ5PvIJSsqQZkfYw0B13bGAxcobQuJkvugsqP5mLPynL59s2zck/usmXvxrAvK0SDpbiH4PO360nZH/654u+VyvdHLUP/T/uaebZAYD/0J6MepLOI9OZN5OxwtfELxIRyq+pMM1G0WnIVDnUEs09XbmSA41R7jFHalYKvhKnLuQjufME3ndQX1xf6SBCHfTnLEC8x0p9EUH5njGHeLaseJvpK6PLPwZv8EcOt9bgPrIkbZE1yfHcJzq9UrXKTjlqHIlGDqO9jR6pfUVU8CdyvDpjCn4IbJlLxOdikynXb8QCGMRCSz8pw8YNdRExOc7gybFjr2ostpNeI6HXTGpXiP5A0IgbArzHslfuS+KBga8NwraEp7oldYXYAazfO/ELFCeKvAs0GHADAVMfbQ6Olo9ZeE/fcHfwyj+yydY/HsuFh0X9jRR4zxqrMV7XwDYptPJ/a4EzkMKf1uKPjMwXvqSLqH+6J+J/5/+7MVUgefRF/dbOlb0MvW2JzkFPOrfGOogC3/GbzDtudVLkPqCNfQh1+dm6MCHx2ji48b2q6j/5BFXyqGjJ+09dfoxYsv4XFZup4mNENHA3qmPzmNk3hz5LJlC543BxOY0EPdtCryPrHGvkFWUCdd2NOd4mxydhhhg4T+9KKup0UXEZ5Mg/iPTs93E6Hg4fOSoq6YNHW0my7Cj+B0WiyvV0NF72Ht2wBfWB8XKWREIr26HVZr3wMQG+xNU1NZRcm4RhaVm0c6YZDnir8pjokD+e+JSxLPNoaziMnn99k7nYm3N5Oh0BDsL/+kN/iaf7giU9RZMpNmPNMHxEKS+MJj/iGhE3WfdBvuOCSH/18r0FP7vSOBKOXQMxvxExI9ftB+p/FLcjyaczbRftF8wsTlgrXeOzpd/Qsfzn6W+hPOpP2ZyOwiDIX8vOiE/oZNp10qTnsNCnPe2JTjNfWD2A/MflPE06hoLf8ZvwC67XuJ1rGy/hvoPe5sP9HYVqNO7OFC915Vy6Bg8dfi0ymKJeUl5f8MiPhBDdvhaRwH2+C6bfHvHMCDOlU47zyXmp6qBZ+E//YDZjy7+d0ys+N8X7+0i0hcScgpdtWzogLce2Kar0gOYs6hMfsJShtYD+MqKvZGijqjvUQXqE0AnwdhR0ICZzXDo6XCOFPNOe/6pqqMs/Kc/6OBhlg719rFPV1HpBIn/weEE+lgI/UcaPObd6R6s+2xYu33pjcaeglTOxNpxwiHOGf9C32OFi30XwHjXZSfBZYcv6XACkT4sWDPgSifPEZ0Mbf3AFNUfFv6M3+ApoH3BnvCq6wszdAz2nxJxc7zSujOHTh3pdp0xdBws26FIOzZMIY8q7282Ml2E/3PfbPAfvh6dxz9bLYU/wGjiRIl/7LJrFNC+APedfX3eAj6vokaZ3kh+Va0r9dDRJzoDq0/DPt4X4T+Tma7CPyg5jZ4f4/vsDzzz1Tq9zs7/TIh/0YFXPTdfGDwdE5uq90Uj6mFmd7RDCPi/UqfXCPl7ooFTrhOGjr6cu0X8+Bb6Hs99winiFfc4G2Hhz/gNngJ6zOy5lQb6T7g+L0OHo2CdOr0H1sQ3XWcMHQMDfVLAq9KPhnTpqbi/2ch0Ef5ag8l48+QXaydM5G49Ddt6lW/+3iNHaPkedXpP4OrT80CHQJV2LLDwP7Psjk+meZ+q31lmJe2MTTrtv9d4beuly8l+7z02BvPuGXa030hfwdMYeXOd5Trg9SfsX5XpR+N47uMs/KcZLPyZCWG89u77a8JdXxb3Y+DUUTrVayJryug2+ye7vUXJodYsZdrRMEc8qby/2ch0Ef71LU2MAZj4aAIivahE+czGw47o8e2euzM6hfoVi3SxcPfIsWNUUd9I64NHHr2HFxzPRcFYw7MpLEGZfiSwPoCF/5kFm86p3l1/BfUUZj6os+9v3kMWq0n53HwBHmQ8RfRYGDShTXWvbXKh7smDRPuLqC/tWpFuJDt60TlQjPpT7cei4+D7vgLH8p+dtgJ4MmDhz/gNXbtu9BLRo2EJuV98kbwFhefRf6KX7AUblHkAc+Cd4kPlvSjJmrBImX4krEnvKu9vVuHoIkv8a/o924p3qtMxU8660Ghd9KdNoOgHwYkZbgJ6rLSYzK4aNfwBzz7W7v0juurs6T3sSj10dFisPrv3XBMY7RfCH+YiK127HW+NSPCbzs5Mo7qhQTf1WbJlL5mtE7Oj7+B47OozrlKLds/juJUod3jzncHYn6jzifqeiPdt8e3R0iX+IfztHdSXcI64Z+fz6W3cJ8KnT2fdCAt/ZkIwBd3nJqDHQl+3t+3vSMepA63DLtw91BjrSjV09PV2KNOOBHYGVt3fbKC7q5qsaR+JTtoN+v2aQh6Wi4pV6ZmpZTJFPzCOHo+VyPR8r5H6kY5TfX0UlZGnzAubd6kW+u71cdExNhCbDHen04Xiqmp5j8Z7rqwb2iCImT54iX7LxIh+MBjyD24CeiwMHm4SNWpsNRYbY5I1adhR/L6eSqRyJnYdAz0lPpsgHaleI+5n9gr/3o5sOpl2o9zMS7vnU0kXOhcYK9JPB1j4MxOCOeJpNwE9Go5E14LewX46bC6lnvQPyBo+X/rRN+2+kbp2XEOmndfLTb3MYfOoJ3c5DRwx0amjPWTac7N3niJt34lDzjwNx/68b7zTjoCjIU15fzOV7qZMuSmYNOvZfo3bvVriF8udiVXnMVPLWoPoTy0qVqY5XarrG9zE5GhgQe/+Q846dfjoUcqtqKY9sWm0OSyB1gbG0Io9EbRib4RcpIsdZ7Fbb2uXWZoVpBeXK/Ns7jLJ/IzHIZH3sjGuFQB7YlNnlfCHWMwqLqVtkYniWbrvrLwqIIpqm5qU5zFnlqqGelrw1XpZZz/YGkCmCRT9YCD0X9wE9GgMlC12zqAPnCTqCiPKvpkG435NgxH/7exEBP+N/HcAm3cl/Jb6K9+iwWMOooMVSjE/iH0EBrzX31Hy+SJ+7KP+B9tSxf1Mz5Hv8XKocZ8Q+3PlZmPYdMx4vyey59F+W7PyvOkCC39mQrCmfewmKkfDEvkM2eNedIp8t7g5QuzfNuy+APboZ8hkGLE20p2/xvVlGjoGTh4a+6Zc26+mmbwIydGcS7bCbdIlKTb16tp1vfI+LbGvUHdztjIPZupxE/2FkyP6AVxRLvfBf/7KvZGUmF9Cm0LjveI2BMdIPMNlXEgsBaeo9wxAZ+HYCW8xkZxfpkyvIiYjV3l/MwGTuYvKamrlPeyMSqJ1QcM/w7yyCrLZeDZuOiJF/9Ih0T+RI/0acpGuDwK7P+tWUZHO854pCP5booj/JFJsCAbPQYMpFw0/it+w3NmZMByDx23OToEqvQfIX7rVVNzfjKDbQr3NUXS05G06lXgR9Uf9eNj9FU6k3yI6OcnivOnfyWHhz0wI9qpIpcgcnTlkS/uIjlvLqe94j+vT4jwGB07RyV4zHWuKJtO+sYj3OXTyQJvr7KGjty5CkVaNnGEIfZTMUc+RNeUDIaS3kKM6mhythaIX36689ynB1ibKUCCecxTZCraIsi2RZURZZcdmuI3OXFhiXyJ7ebA091Hmz5wRYrNzp0T0a6wfRmiOxubwBKpqbKEDhw67metgdP/Y8ePUZXVQYu7YTInSi8pcZw8d2A9guI6EJ/DjvzksnnZFJ8t1C0l5hdI8prG5gcxCWKvueyqAf/9OUydV1ddTblk5xefk0774NFlOmO6gI6W6H42NIk1yXhE1trbIPQNU12CmB4tWbZF19sNt+8Q7NznCFrbxY/HC4wUWBRc9QdSdQ4Meu/HC289gbw0NNq4iCv839flG0DE41es6eejoK35xzGUbDP4bGoj4H+qL/Q2dSrqYTmQ/SEfKP6ZD9buotyPL6Xtfcf9TwQFbM/W2JtLhmo1S3J/IuFMI/AupL+bncpHu4CiLmTHqf7h2Mx0wV4j8Zs6sBgt/ZkLARlRdO65Vis7hcCS9TqcO21yfktGP46YiMgfeo8xLwxq/yJV66EAHwhzpmynSsOyYS117bpamM6bgB8kc9pjI+xkyR78oxPXLZIl/lazJ75M19SMnmV/J3X6NWNM/G4pPfk+eg3ORh8xL5Anbe1PAXdS1+2bq2imuqSrLcOy6kSwJb5C9ZDd1Y7dfNueZtjS2ttKSjXspp7RMGT/R7I1LVYrO4YBJT0uXWXrwGcuBjkFi3ugdgIOHvXcALq1rUqYdD6sDo0VHIlZ2ELZHJtGumBTaKwiIS5OdBRCdnquDzoORhJwCt3ikD0rIkOfvjU2lnVHJcl8EzIZg1F6Keh93I94emUgpQuhX1dVTe2f7tPLaw4zMFvG3WxcSM2miX2JvE8LTt028BgqfJjo2+mJ8ecCNdsc+5469irw0+vMeFo2o+9qcQZwb+W1l+vEA+/iBsH+jgajvy511++J+S30J59Kp5MvoZMrVdDJ1Lp3Iul92GsDx/OfoWMFCN47nPKLHn0i/VZ5zKvlKmQfyQscDOwP3R3yLBkL/WXZIVGUZDpTvROaddKRqJfW2JZ3RDsvpwsKfmTDMkQvUQlTBwbINrk+Ibwe2HD/aHE/mIKcrShXHbViU5H4cs5Yr0xqx5a2VwOONKegBZZppg+gMWEIfJUvi27LMjqpIKfK7TbX+4UGBGRcVdXVKEaoC4rb3qLdAH+3ALIDjwEFKFOJZlS+ISs/xWoKIzsWeUTomENs5JWUUm5lHu2NTpIcfVbrpAjpOWJMA0578sgqqbWyk1o42uRuw6u/DMEYGwv5DKUKVtIg2dQxe8jwPuPkcbFo3Ygdg8ITdldpwtO+i0dx7HqlcToer19CxwkV0KvVa6o/6kQj3zSvQVDIY8nfUH/9bKfCPlbxFh+u3C5GfQAcsVaJdnT0dcxb+zIRhLwtQi1QPeiu2uL4cQ8fgQB+dPGQSor2YjnXXig+NxxSl4RC6Qh7HHXV0pEEI3twvyJH+Lu0vXkvH2tJpoN97syAcpn13KcsDTHvv8L4nUdF7LM3U3VFOjoZ0ctQmkL0ihGwFm8matUyO2FsSXiNLzEK5uBmdBdO+e8i05xaJ6jpGtHS4Ns5FHuaoZ0Wer4u8PyRr9nJpaoRr4tqOxgxZFpRpNn2EmKll3RjEMkT/0ePetvhHjx0ji8NBJpudDroW/o50IH1jRxfllFVRVEY+xecUUWl9s1wsrDqyy0beCRgmPZ73Y7ebqcvUSY0tzdLLSkl1DeWXV1JqXpHofBRSVFqOHLHfHZNCm8PjaVNYPK3ZFy0XJWNPANV1NGBWhHQA52EBLmYPkB86LwnZBZRZVEaFFVVUWlNLNeL6zW0tsjzdbK7DnCbH8xcIQToGk5r2nV6if7DvOA0caiaypxH1VtHgqeHrKzrrGNXvt2URNa4mKnhU8DD1Vy6hAXO0iPf2xoVjcARzoVPxfxTtlGI/g26LENK1dLAjm3qbw6TJz5HqVUJovyPu93k6kXWf7CT0JV1CpxLOof7oHztH6cP+VaK6lhEtXX/Et+W5yOOUyOtk+i10PPth0Ql5hY6WfUyHa9bSoYa91NsSTQc78+mArdG7rLMUFv7MxOEwjyiuQXfeStcXo5+OdaRRT/Zn0k5dZaMOMbw/6zMaON7tPGeEQ+sMDHfgI2gaxhUoONObWDHMVAHbc5XI1YCt+WEh2HEcPHSYcsprKCgpk9YEetvgw8QlOCmLGto6ZPrTPZLyS72uoYHRcxuPlDP+hMNEgyH/qBS4GgP1y0QDB28+p2igfS9R3v00GPNTaZ/vnvbPaSDuFzRQupAGTxx01bjxH7IjYXBh6ckRIa559nl6wsKfmVCsWV8rhTWwhM+nvmPddKB0q+gg3K1MMxy25LfouLXY9cnx7YB5UHfaEmW+kl03UI9t+vrcZZiJxGrtopV7IpTiGrSaLdRmstK+hAyf7NY3hyVSYVWdq9b5fmBmYNVed3eWRtIKJn5vA4aZ7mC0eljzmKwbaPBIKw2WvkCD4f+pTqNA2rfn3Uu0H23qKKNmigOifyBl+HL1R/wP7be3KO+HOfOw8GcmlB57J5kC7lAKbEv4PDLtVbvpHCv2+Bd96gAc7SogS9ijyrw0YLKjuheGma3ARl4lruE3Hr76VXFjZW1gNBVV17tq4OgHzIGSRxjpB8iTR/sZfwSeZ4Yd9U+7ZNQZgZH5c+nv35cOQH9HAFHUyAt7j5R/yqP90xgW/syEYy/doxTYEwnMgw7VhtHxg62uz5HzGOw7SkctZXSoYpdIM095rhG4wuw5k246GeYMAHeR6xSmOxPJmn1RlFJQRha73csr0IHeXqpp6aDwtFzp2191vpGCiirlfTCMP3A87wkhqMfh2nPM/Bn1J5xNAy3biDx2/x082UtkTaTByreIor8v06rzcNIX93vab2dPctMZFv7MpADXlCqhPSnsvJ7MQffJjb/gy1+ZRskcclRFKcvPMLMdLEZViezJYn0I3Gsm0PK9owt9IwHxabNqp16GGQ/9UT8UwnqKPOKE/TP1R/+IBsN82z0Yfu97W2JFedn5xHSGhT8zKXR3VsrNsNSCe3pgSVmiLDvD+AuRaTlKsT1dgI/89i5ef8MwvW3JNBh6OmY9k8/RotfZxGcGwMKfmTTggrJrxzVK0X2mgRmQqswM40/Anzw2uFKJ7jPN8j0RVFFXryw3w/gjR8u/pEHszKsQ3WeaUylXCtFvVpabmV6w8GcmFXtFGHVtv0opvs8UcBPaY2tTlpdh/A2bzUybQuOU4vuMsVvts59h/J1jxa9JkxqV+D5TnEo4l+36ZxAs/JlJx14ePG3EvxT9liZlORnGX7GYu6aP+Beiv4gX8zLMsBwrWjRtxH9fwjm038Zt6kyChT8zJTiqY8642Y85bD6P9DPMMGDkf1tEolqMTxEr9kRSeW2dsnwMwwxxtGzJGTf7OZV8OY/0z0BY+DNTRnd7GZkCRt7Zd3KYQ5bk92m/o0tZLoZhhjhTC343BMdScxtv+sMwY+VQUwgNhP+HUpRPJoOBf0HHCxZymzpDYeHPTCnY4MuS9C51bZ+i0f89t7HLTobxEbj6XB8UqxTok0F4ahbZeYMuhvGZA7YmOpl6tRDjf6kU6RNNf+R3qLc1TlybXXbOVFj4M2eE7uZcMo1hg61xs2MuWdM/o/0Ok/L6DMOMDEx/otNz5W6+KrE+EWyNSKTWdjYVYJjT5XD9DuqP+YkQ55Pj638w5B/oeNFiblNnASz8mTNKd0s+mUIepa7tV6sFvI+Y9txK1swvqcfKYoJhJgKMxEel50if+irx7ivYqXdndDI1NDUqr8cwzPg5XL+L+mN/MWEzAAPh/03Hil6j/XbeT2O2wMKfmRb0iI+KNesb6XWna9cNSlGvRHQYsFGYOep5stfGK/NmGGZiwMLbPbGpshOwbPfYd+BdvS+KtoQlUGpBsehIsK9vhplsDpir6HjuPLnj72DI3ylFvYrBoL+m/oj/oVMpV9Ch5miRF5v0zDZY+DPTE2sL2csCyZr8HlliXiRT8MOCh8gc/gRZ4l4lW94ackDo84YhDHNG6HZYqaaxkVIKiigsNYu2RyXRlvAEyd64NIrNzKPCiiqyWNk0gGHONAfMlXSk4is6kXkPnUq8iPpjfibpiz+LTqbdSMdK3qLepjCRloX+bIeFP8MwDMMwDMP4ASz8GYZhGIZhGMYPYOHPMAzDMAzDMH4AC3+GYRiGYRiG8QNY+DMMwzAMwzCMH8DCn2EYhmEYhmH8ABb+DMMwDMMwDOMHsPBnGIZhGIZhGD+AhT/DMAzDMAzD+AEs/BmGYRiGYRjGD2DhzzAMwzAMwzB+AAt/hmEYhmEYhvEDWPgzDMMwDMMwjB/Awp9hGIZhGIZh/AAW/gzDMH6KxdxJz73xDiWmpephCakp9NqHn1BxWYlb2pmGw26m1z/6lN74+FPq6bYq04yVnPw82hUURHtDQ6myulKZpqfbJq/30TfLT/t6052C4kJ5r8npadSjiGdmN/hG4LvR3NKojGfODLX1NeJ795mol+kjfoNY+DOMi+fefIe+9YfzvfjlpVfTrY8+QZ0drcrzGGY6AQH6nT9dqHyXNd4Qog0Nw6fLV9G3/3gBnX3tzXpD8eXqdTIsKiHeK++ZhNXaJZ7DBfJZdDt8F+JWSxctfOd9+uUlV3s9vz9dfSN9sWqNW+OqPXfEjed6M4l94eH0HfGOrNmy1e0ZMJPLzQ/Nl3XT8338yQWX05V3PUAxCQlT8ve4+Ja7RDnOp+UbNs36d91k6qTvn30xvfvFV+RwWJRppgtZeTn0PVHWTbt2i7/L8GVl4c8wLiD8vysa7oi4WJ3w2Bh6STT++Lj+6LxLyWLpVJ7LMNMFTYCis5qQkkyJqSleaKPWtXXV9NBzC2nr3r36+cMJ/6179tAqKfSGwqYzpyP8O0Qn/9Jb75b1/v5nXqToxATKLyqQI90BYWF00c13yrgnF72uCy0W/sxkown/3cHBel2OS06ib9ZtpB+ff7kQfRdRZHzcpP9NdgYF0W3znqCq2ipl/GyChT/DzGIg/PHhVMUFR0bKhh6VXxXPMNMFTYA+/vLicQkAlfBHnpfdfg9dddcDM0bonY7wv+uJBfRtUd8hbO12s1d8a1szXXH7vfI5oXOFMBb+zGSjCf/K6gqvuNikJDlw9cCCF6a9QJ1JsPBnmFnMSMIfjRsauh+ff5kyPiMnS9o9VtdWK+MZZqqYLOH/w3MvHVX4O+wWSkpLpWhxbvUYRwOraqootyDfK7yuvlaOZmbl5pDNavKKN4JGLiMnh0Kioqi8slyGjVf4w54fjed9z7ww4r3GJiXK53TH40/LdKMJf6SBTTyea2NTvVe8J3nimSBtSXmpMt4TrMmITUwc9bmjHFl5+fJvVFhSrExjpLOzTfxN0yg5I0P+H2Es/M8MIwl/vH9/uOoGuuKO++T6Fs94X8A7FJOYQBm5uePOK7+oUNbfhsaR33XU3UxxHdTdsooyeR+qdMBs7qAU8R5ipgP/V6UBNlH307KzKF5cv6m5QZlmrIxX+OP+8Y0oKiudsDqCNRWw3x/u78LCn2F8ZCzCH+LHGP75ytX0s4uulLMBGvjwGhtfmAyce90tbudhUaV2XlhMtFvc2m07ZHhZhVPAMIwv+CL8G5sapJB485PP9bSewv/ep59ze781Lr/9Xv0cu81Mi97/kL5/zsVuaW5+eL4U8Nr1wDmiLpx1zU1CENTRjQ8+Jq91y6OP63kVlxXTTeI83IOWDzrcH3z1jfJ+Vm3eQr++/Fo9LfK77LZ7ZAcAddZX4f/s62/LPJLThxY8q7DZTPLetAWOwwl/dIawEPYH51yilxHc8MCj8hlo6TTWbNkmn48x7SW33KXPLABc67r7HqY5d91P2Xm50uZaS4sy3DrvSTkrYcwXzw7P6vdzrnfL+7zrb6X41FSvRbowd5r/0mJp4qil/b64B6x72BkYzML/DDCS8O/qapd/n/tFh1UTqPc/8zz99MIrlLNWwUJoY4bAuBDUajHRDQ/Ok9fQ/ua/uPgq2h4Q4PZ3XrTkI/GeXSCFphZ+1d0P0i2PPE6pmRl0/vW3yRkznI829Z4nF1B7R4t+PkAZv1m/gX5zxVz9WgDtZXZ+gdd79cQrr9J3zxr6JvzovMto8ZKPZT00psPi+p9ccIWeDqL90RdeJrMQ8MZ0Y8VX4b8zKJDOu+5Wt2eIOgarAe2eFr3/gXwueYX5XvdZU1cjr3fn/Kf0v1tZZRldc89DbnnCtOv1jz4hq+H+WfgzjI+MJPzjRaOLyrZYfPC0sI++Xi7DYEsNG+DcgjxauWkz/eDcS+jsa2+ijk7nYuAX33pPpquuGeoMYOQPYd876yK67+nn9XAAQfXry65xC2OYsTLRwh//bty5S4ZBkG7csZM2id8Y9UU8Rp6eWvyGFIKvfvCxHI3LFg0QzkE5fioaYZOpXb8mhD8ap/OEOLj89nvorU++oC179shyV1SV02+FEPjdlddJkYqGETNpj7/8qrj++VJAG+9p2YZNslwQGtv2BkjRAc87193/qBQGqGO+Cv/r7n9EntfVNfyIogqV8Efj+8CzL8kyvvzuB3IENDs/lzbv3iMHEX5xyVVuAn3t1u3ym3DtvQ8LoRAhZ0K2CdGFZ4KBghrXjKIm/H916dXyevjG4Dlp3lZwvVvEd6nb9ayQfvXmrTL8zsefkeuXCosLaV9YmDwf91tqmFlAem2Nw1OLX6eI2Fg5k7N8w0ZZ7gtvukPGsfCfWoYT/hjVhnkaOsjw0KX9TXwR/vib3/XEM7Ieb9i+Q65pwayQ1gmtqhnyZjWc8P/TNTfKtgueZVAOjHg/sOBFWWashzEKZwyaob6gjLgOroe1A7+65GpZBxobh0bqNwshi7K+KfLNzMmiJNF+PvHKa7KsOwOD9DLEJCbqQj8lI12WD44McB18m3wZsdfwRfjjm/eDcy8WmuApWX8Lipx1DIOBqDfhot6hrAmio417fOnd9+XAgDGPddt2yO9jjvhOIC10A0T+by6/VnoWKxDPCfUcnXL8Dd78+FM9Dxb+DOMjmvDHSKEGph5Xi8YNFR8jdlbD4t6fXzRHflQ9pxzf/3Kp/FCGig8rfuMDhN8bhGDS0nyybCX9/OI59PanX8gPqxbe2tok00K4aGEM4wuaAMW0/z1PPutFaPTQDNNYhL+WJ8JUpj4ZOdkyboUQ4Z5xmO5GWT5YOjRaD+GPd/z5N9/1MuF5bOEiKdiNIgPg+hhpxoimZjoAEyFc95y5N1Onq5OtgXy1Bbi4/liFP65z0Y130K+EePGlswC0524U/qXlZVKcfOnhAQhA1OO78t4XS/W4C2+8XYZ5midsER0F3OvSNetkWlwLwh/3t1gIGmPeEHkYYcT3Smv8MXqPsqFTo3UGNBCHDgj+tpi5Qdi7n38lr4fBDc9yZ+XlyjLi2iz8pxZN+P/hquvlewbQScbf9nzx7sDk1Pj38EX4w4sVxCjeG2P6mrpq0RF9SC4o1vIeTvijbJ+vWOUmOmFyhxkriFeTqzMNMYtrzXvxFS8xjRk0tMOXiI6nVo7fXemcFWhta9LToQ7c/Mjj9PJ7S/Q8Fr79vnwW6Bho5UK6xxYulk4MxmO2NFbhj+v8Yc71crbS5KEJOrva6GLxPbpaPCPUMZTjstvupvNvuE38HvoGIu6P4rv9x6tvkDMZuN6lt90jOg2XKF2n3o21SOKZw40nfrPwZxgfgfDHx0UFpjA9TRYgPOob3MNAVl6ePGfp2nXyNyr2L0XDih66lgYjlBBhGBFBWoxsynNzc+TvvSGhelqG8QU0QFKAXnMjPfTsi14ERUbqaU9X+CP82TfeluLCGG4E0+6YBdMaXU34e9qiIy+kffb1d5R5pWRmyDJ8sWq1jEfjht/bAvbJcz3TwzYe8XgWPgn/myZG+OM3RsuNAtwTNPCIh00yfmONUJ3im9LQVC/zfl58o3DvyBvCH2FGMaSBkXncOwYu8DsxJVl2QDCw4JkWSEEp/iaa6ZFmOjScn/Yn5AwMm/pMNZrw/+Crr6UrTYB25tnX35J1bK54J2AqoqX3RfjjHcVoO/JfumYtdRlm6TwZSfi3KN6xtz79Qr6rZZXl0qQMI+PfF8If77VnWrzbV95xvxSwmijGCD7yxoy7yjxO45v1G+V1HlzwIpVXVQy7xwS8mmGvEuSnYol4vlqdHavwj4iLk52ZGNGmq+rEO9ozkOsYrOLvtt7L1AprbnDfGDzEtdram+W1H3n+ZWWnpbyyTMaHxzpnElj4M4yPQPijImJRE4D5Dnrf+OCo3HhihOSLlavltDfSoKE0ogl/gIoLMYEePez1EL926zY5EoCPxYtvvyfTYaTth+e5ryNgGF/QBOhEmfoA5IkwlfA/Z65TyGMGS4VWH8xmZx3ShL/R/AegMcY18P6r8tHsdl8VDTPKADGB9O3D7K+BmTiIEzwLX0T8tfdppj7DCx8V2nM3Cv8LbrhN5qW6H4DyO6/lXDQL1m3bTlfcca8c9USckQWvvSXvHXlD+P/+yuuUDXxgRITMOzUzU/7GrAJ+q8oAYIaA/GFqhbzxrUIHaDjxAMGJ/Fj4Ty0j2fjnFhTQL8Tf8r6nn9MFqq82/sj37Lk36+8bPFfBRKaorES+F9q5wwl/mJ6prvXp8pWybuQVOm33F4r2Dh1R1bsI0BlGek34Y00cRtK1+oIZrZffXeI2sg8w0zf/pUUyb6T74zU3yk5qkKgPxnSZuTnyO4TBERVyZN51H2MV/u9+/qUsM573cPeEMqVmZMiyYCYFIv2RF16Roh7P9+1PP5ffP63DXV9fJ6+N+qnKEyBPdKRQV1n4M4yPqGz8cwqco/f4gBo/HGDOnffLuKcXvyHtcOHzHz6U0XAj3Cj81293LtiFWQRsl1E5ten8h59/SX5gUVGx8A4NrnYew/gKGhA0QFMp/DGNj/caZnHDoTXimvDXOgIamK7GNe596jnl+Rqw40f614QgQXp0no35aIxX+MNcAPnCpl0VrwG7WpjJaKJde+5G4X+WEBH4poz2bLTRPKyVwLUh3tCYh8U4vylYt4Dw8Qp/iBaUbbRywGQKecOeGKYJw4mH1Vu2yfxZ+E8tIwl/4FwLc4EQjs62xVfhD/B/LER985PP6LZ5T8r3BvU1XLyLWrrTFf6vvPeBELQXyTVxqvcQrNm6zavewuMWFu+ifmCGA+V646NPvN5TzPbBLO7h516S7zLSyQ6RomyjMVbhD+cDuEesQ1i1WX1PoKlpyBnAXY8/Q7+9cq4068H3EJsFwqxKM7mDlQGujXQrR6i7RaXF8rmy8GcYH1EJf1T038+5Tn44TIYRQLi1w6gCbOyM6QEWKiK9UfjDLhkfBXwAcQ5W6GtxWPyDvDAKgfMwBanFMYyvaAJ0qoT/M6+9KUekRruWxnDCH3n99MIrpT3uWPLaujdAlmlnULBySh8mD6hXeBa+CP/07CwpiB569qURy5GckS6vf+/TzkEB7bkbhf/jr7wmG+KRGmENpEcHCov7PT2VoBOCexmv8A+PjZPnGxfwjgTWR2A9BTo2qvhnXn1T5s/Cf2oZTfg/ucjZcdT+zvNeeFnWTZXrS6y7wfuqCX/UR3S+YZNvTFdRWU4/Ov8yObqsvZenK/w3i04t6hg2xBvL+1MrBLCnV6D29hb601U3yG9JfYPT/Af/epoamU0ddPPDj8vngvUpvr6vYxX+gaId/+5ZF1FQRPiYrxEiOlg4JyQ6SrrMxew/PChp36u2Nqepz63znlA+V09Y+DOMj6iEP4hLSpIfFywO0io0hDzC0Ls3psWoJhpuxBmFP4BouvruB2TlxmiKFo6PLdLf+9Sz8uOItQPG8xjGFzQBOtHCHwICbjI988QoHNIvXvKhV1xBcZH08rF2yzY9bjjhD+5+coFs6OCi0hiO67/07hL6/RVz9WlwLL7HdbFextMsByNm8IyD6+BZ+CL8gdMTyfnSVl71DCFC5oj6DPeCTjd9Q89dE/5IV1RSLAU3Rjg984EI+vVl17ot2IUIgHcWY1qEP/y808Z5vMK/vd25uBdelDyfBZ4dZm0wOqwt/IVrVpyvuv/i0mLZQcGzZeE/tYwk/CF6McP0SyG+tZHtD5cuk393CEvj3wmzZBhdxt9QE/4YJcf798Lb77m9U3jXIOiRFiY3CDtd4Y/vAq51+2NPeY3CY90cvFhhlFszgcG3B+Y9Fot7pwSL1fE80GYi3bnX3yIXAnua/8FmH9fHOiFf39exCn84/sDswmW33Usdrv0uNNCBxqz+beJ+jc8HnRe4S71j/tPSsQHON3b6UVdxjzATUq1tuGP+U/L7qu0LwsKfYXxkOOGPCgQ3afjwoaJq4XCvhzA0/FiwAzMeeBmAfSDCPYU/Pn4IBxjpMMZdfLNzMR3sC43hDOMraADRyE208L/lkSdkvu9/9Y105QkPIohDQ4YGHOfAZSXc2qI+hAqxgVE9eL/CqJuW10jCHy79IB4wugg3fRAjuYX50j0g8sfCO+M9YdQS4XA96XSpmy9d78LFLkwccB2UWRO7cKv3q0uvoTaP0UNPMKN3pUiL8zFaiM2FkHdmbjbtDgrSXV0+/9a7enm0524U/vh23CLOR9pFSz6RLvrQYdkbEiL94//swiv1bwrOP/+GW2XaDTt2yFFbLPp//o13pBcXiJ/xCn+kh4kEwrDAGzMIWBiIZ3b2tU6bbs3BAMCapgtudLrsxAxkenamvH/MZkJYwhsJ4jThDyH6m8vnytkfT69BzMShCX+YlkbFx0vwbn6zdr0c/cb7B5ew2juJuoO9NbCIPCw6WpqEwKXs3PseoRsecPrr14Q/7OPxPuHvis4o3L0i/Zdr1sp8F73/kf6una7wR5hmfgbPPvB8h28GTNsgZCFe6w1CF+Z/KOszr70j21nUod1BwVIQn3MdOgTOb4nW0cH+IXCZjXTI85eXXiXz9dzbYixowh8L9VFvUFZPtOsvEx1lpL3+gUflIl8sZk5KTxXfgPlyBg3mwNr9a7z+8Sd6R/r+BS94Pb/6+lr68XmXye8ZvhtlFaXyO4SF/rhXY4eEhT/D+Mhwwh/gY4mKCe8CWsVFJYYbPIRr4OOHEXxUVE/hj8YTaYzuOzVWbNwk4zDq7xnHML6gCdCJFP4ACz8heCHm8a4+Khps7RzMdMFrFcSpVhcAOsEtHp5hRhL+AJ6tUI+M+SBfdCpU9wN/4J71EAIfI6BGUx88l5+IDvyjLw7V4ZGAyQNG6o2bg2lgn46vhdgy5qM9d6PwB2jIYbuvNe4aWCNUW+e+03daVobuN10Dv4vLSqUoG6/wBzjv81Wr9QWBGnAhCjMDT3OpNtEhwaircdMkiIonF70mnR9A+GnCf2+Iy1zR1RlkJgdN+Bv/fgD27uioei5iBas3bXH7m6ONm79wEWXn5clRd6ONP0xL4BnI8xp4D4xraSZC+GONzEffLPPaABNmZmk5Q/lqoIOA8hrTop7XeHgHe110VH920dAGXuBPog5hAzzPPMeCJvyN+XkiF8W70sO+33OTPNTTHfuC3L4LGjA/wt/E+XzUpk+Y0bj8tnvc/i6a5YDV4BKZhT/DTBHYPntnYCAVlriP4jOMv4FGPzohQY7WV1Sp7ZDHCjarwqLW6MREL7tjT9DxSBQCBhvcYJRSlaa5pUmKU+NI4ljJKyqkAFEWCKuScqeLTF9Bgx4n7gXfCpXLTiO5QgAgHUY3VfGnA8qRmpUt88co/mgj9DAjwEJQ7P8AkyFVGow+ag4KVPHMmQUmOrFJyRQQFjamUW/8zTFjh02o0BlQpZkoUHcT0px1t7CkaERxbjJ1yM3n8O7CC5hqbQ+Axz1scoV0GB0fj+A/XXJEJwf3BLPFibo+9kVBnjHiG6vqYI0VFv4MwzDMrAemLthPw3YaDSbjDcQ+TBTh2vhMCCyGYXyDhT/DMAwz64GZTGB4xLCjhMz4aGpulGZekz0yzDDMxMDCn2EYhmEYhmH8ABb+DMMwDMMwDOMHsPBnGIZhGIZhGD+AhT/DMAzDMAzD+AEs/BmGYRiGYRjGD2DhzzAMwzAMwzB+AAt/hmEYhmEYhvEDWPgzDMMwDMMwjB/Awp9hGIZhGIZh/AAW/gzDMAzDMAzjB7DwZxiGYRiGYRg/gIU/M22orqmi314xl1Zv2aqMZ2x03zPP03f+dCF9umyFMp5hzhQmUzv97srr6KxrbqKebqsyDTO1fLV6LX3/nEuo22FRxjNMT7eNrr77QVl3W1ublGmY2QULf2baUFFVQd/6w/n01Zq1ynjGRvMWviKf0dI165TxDHOmSMvKpG//8QL5fqZmZirTMFPL5ytXy78JC39mOOoa6ui7Z10k6+28F18mB78rsx4W/sy0YaKE/80Pz5eo4mYCBcWF9MPzLqWMnGyvOHyU6xvreESVmVZg1PDCm+7QBcQFN97O7+gInDP3ZvrReZdNuiBn4c+MxooNm+h7Z19MPz7/cvrhuZeS3W5WpvN3NuzYST+54HJqbZv5syIs/Jlpw0QJf4iOufc9rIybCaRnZ8rnkJ6dpYxnmOlGY1OjFJgPPreQ7n36OfrOn4TYZOE/LL+45CpZx1n4M2cSm81EP73wCmnms2X3bmlGipk77rS7g4GNV95fIp9Pyywwh2Lhz0wbVML/xbffo2vueYjs4gO1be9euuSWu6UN8YU33kGbd+12O/+Ft96Vab931kVy9AL/Bwvfft8tXXVtFT38/Et03vW30VnX3kRz7nqAgiLC3dJowObx1keeoHPm3iK5/PZ79XxBSFSUTPfcG+/I3xZLF0UnxNNVIs8r77jfLa+UjHS6+eHH6exrb5Z5XXf/I5Sdn6vHl1eWyzwwcorncMktd+nXaWiql2kyc3Lk73LxrLTzNALDw+i6+x6ReZ973a1027wn5eyBZ7o3PvqU7n/mefn/rXsD6OKb7xRluokuvfVu8fHf45WeYUZj7datUuw3tzSK+lUjxeY28W71eKTLLyqga+99mBJSU9zCARrXWx55nF778BMv4fH12vV0kXhPz7rmRlk/tHoBHnn+ZZm+RlwXeadkZlFSWhpdccd9Mv1FN90pbd018btzX6B41++R35HLbruHNonviEroWCyd9NI7S+RAAvK5+Oa76L3Pl3ql3SwE0x2PPSXDI2NjZZ7IG/Xqy1Vr9PS4P3x3UGYICNRx7R7uefJZt3zx3XlIdKLOu/5W+b24XOQZFBnhdW2NvaFh8n5Rj88Tdf/xlxaLzlg9C39mRErLS+Us3apNm6mjo1W2nReLdscxwqg/3q3zbxBtp6gTaDO0dxh8uPQbt3cNbTTS4B32rLcPPvuiuI6FautqZVsYm5gg69wLb74r61yyaC+N7/trH34s8sA3wNn+f7B0GVnMnXq8kZdEm480uC7qrfG6r37wsZs5E9rwK++8X87Cod1EXayrr9XjUzMzZLv6y0uulnV2jkir5dXU3KCnAx99vUx8b+6QuuKCG26nd7/4Sj5XYxqA8x554RV5PZTxmnsfopR09/udTFj4M9MGlfC/WQgBhD347ELXvy/SM6+9RT849xL5G5VYS/uQSIPFwQj//tkXy/8DNKBamp2BQXI687ui4X1y0Wv0uhAZv59zvWwcF4h8tXSgra2Zvn/OxTJu0fsfSpAW+f/6smvo7icXUFxykkx7/QOP6uXRGvVfXXq1nteqzVvkNfFhff7Nd+ipxa/TTy+8Uv5ev2OHTFNUWizLq31gtPKD6tpqmSY2KUnGFRQX6XmDJ195XZYT9/b4K6/SAwteoB+cc4nMH9c2poXoxzWee+Nt+dHH83nspUX084vmyDze+exLt/QMMxLolGPU8FeiTqDhwijid8R79IuL58iG3ZgWjSjeseDISLdwAGH8kwuuoHufes6tAXxs4WL6tnjn0Ti/+/mXdNPD82UdADc/Ml++x0hfWlEu854vhAn+veruB+iZV9+U9Qdpn371DZr34isi7nxRd5+V35EfnX+ZjPts+Uq3axaXlenn3SZEPTrLuD5+Q9CbzR162s9WrJL5fL5ylazj9z79vPi2vE6/Ec8D6XEt5I37u/HBx/R8gVa/r7rrfn2GJCohTg5cIP7RF16W36g/XOX87jwtvhvGciLPBxa8KO8X9R3399jCRfI3ZhXwPcL/WfgznuDdee71t0WbcQl1dbXL9wrvONqE4cx9LhEiHu/TXU88I9qJL+TglPbu3TrvSfrS0MFeIOoevgNIg7R3zH9apsV7jDqM+gcBjnYf7dTbn35Of7zqBr1uoK1DmWDa+pvLr5Vh+Da8/cnnoqPwqMzryjvvo06DsMY9XeYqI9o1XBf3hN+4BsqtdU6QduHb78n2+g+iXV+05CN6VNQflPlnom2urauReaID8gdDuVAWrd42iLIhTUtLo+yk49ty44Pz6M2PP5UDb7guOkmNhg5CZXWFzAPP+RnxTVrw2pv0y4uvks8wJCpS3rOWdrJg4c9MG0YS/gAjWFo4etF/uvpGGY6KpIUDVEiVqU9VdaWsXDeIiomKqoVbLV2y8UYlDQwfGvnHhwofi/oGZ+UGGGGAyEEDj9EJLVwT/qjMwZER1Nbeoo9G1NbXyvTX3PMgtYtw7Zyaumr5gUGPXwsDKAPyUpn6qIT/yo2bpTCCSOjqatPDm8XHBqOA+JAlpaXq4RD+uFd8kLUPF6hrqJXiH3aM+Chq4QwzEuWVFfJ9etYlwKWgeOMd2QhiBsyY1lfhH52QINO//+VXehjSrdm6XYaHumbcgCb80ZAjf222ASL9F+K9Rr0BaaIMWl74jvx+znWyfra2N+v5Y+YA9Ty3IE/PH2BmUN6rEExaHtq3A/kYv0Wo6xhFxEyI56jfzy66UpbFU5BjpP/Xl10tv1/Nhm8UOlMffr1MXsc4Q7F++w4ZdtcTz1Jn51Ddx7XvEx0QxKmuwzB4R9Ae4h3VRvgzRJuDNmxnYKD+jml8s26DrFuok1oczrv3qWfle1ZYUqSHo+1CPq8KMY2BAS0PzCijrm3avVvv6GrCH/UNg3HllWWy7bTbzDK/34l6hXcYA2PGMkXFx8sBPohs7f3WBtg2i+to+SOfl99ZIsuTk5+n55GQkirD7nr8GaEBhtry7LxcWZ4LhGDHuQjDNwHpcJ8qU5/rXR2RdA8zqZSMDPrRuZfKzrj2jJeuXS/LGBQVraeFtvmp+PZhdsT4vCYLFv7MtAEfAFRwlfCPiI11SwtWbtos4+JTkt3ChxP+H4iePtLDbahnHAQz4iCG8RuVFL/xMfJMixFGxBk7Iprw3x6wzy0tyC8ulFPumYrFum9+8rk8r7beOboAfBX+vxP3izDVlGJZRZmMe2rR63oYhD/CwmNi3NKCFRs3ybhEhSkGw3iCBvHldz8QDfBFbu9fW1uLbAjf/uwLt4bQV+G/Ap1aiAqPGS681wjH7JmWVhP+qoXFq4UgQNyt857wEsELhShAnGZ2B5M8/N4eEOCVD8oIQY3R9G6HM04T/ss3bPRKn5iaKuP2hoS6xQ0n/D9zmebkF3mb6GH2BKOHGLiAqEFZMAP5uyvnus1AaKDjoM0+svBnPEFbAgG6bd+QyMcgGEQvZrTR2TSmh8tPvJuewhedBOQTJtoTLR90SPHuJaenur33ldWVMv+Hn3tJvs8IQ7uPMLTbmtDWwKAb4sKih0SykavvfoC+J749ra3OTvvDz78sy9hkaJtBkPjeQORv3btX7xDgW/TFqjVUJfSA0SQR1znnulvk4nvtGYwk/OvqaqTLXHSMVPUMnRncQ41rBuGTb5bL57Vmyza39MVlJW6dp8mEhT8zbRhJ+GMq0pgWJKenybjdwcFu4cMJf0y9wUQI6wZUYPQDi5yQFh8HmM2g8nvmo5UJo/pamCb8YTNpTGsEIwmYTsRHT+Py2++R5xkbel+F/w9Fuefe/4hbOiOw+8UUqvZbE/7tHUPl14iMi5NxsM/2jGMYT1Av4YEKdrfGBgsNGmaa0ChbrUOj/r4K/82798r04bHundQUVz4fi0ZUS6sJ/5fefd+r8YTgQHm27NnjFbduu3P2QBtAeO+LpfI3TAdV3wnY9qKOVNc5ze804a9ad9PY2CBH/D9ZtsLtusMJf5gJIBxmh6prQ+g7Ox0W+a1B3jD18bwngOeJtQeYeVEJEsZ/wbtx40Pz5Iyz0awH79FDLtMxk0dnEjPKCMcaOWP4166ZgPhkp2kOwvaGhkpxu8Nj5iAnP985E/DBR/o7qQl/mKd6mgYu27BJ5r3gdXV9wPodlKm4zDkb8OJbMN3B7xK3627cuUuWJwQzgYZwkCR0BAYQjO3yLy+9Wrb/YxH+2wIC5D3BHFlVRqz3w3lY14Rrl4h6+/OL58jyYG3DO59/Kdt6z3JNJiz8mWnDSMJfNaKVmZsj43bsC3QLH074X33Pg7KyYZHgcGA0TUu/KyhI5o/FRlU1lWQydciRe3yI7n5igVtjqgn/WpcY8OTpxW9I4QG7fow6TqTwx0fTc32CESxIxkdM+60Jf8+FlyAqIV7GYcGiZxzDeBKXnCwbNUxRLxadWo1F738kTdjwLtU3uC+UQ/qxCn+M5MHe/ey5N8tF89gkDGZrWMAK8WzccEgT/q9/5L04WBP+geERXu/9pl275Hnaeh2UHb9xTdU3QkNbd6MJf5W49lX4z3GtIzj/xtuV1wRz73tEDkzkFOTJe8Js3nCi4ZX3Phi2bIz/gncXYhWmnVi7Zqy7j7gE/qfLV7q9N0UlRXJkG2I1Jz+XukRdxEwW1ovhvTSamuH/GESD7XxwRIScUc/Ky6G59z4sB99g5qql1YT/E4tec1t0i+/Bs0Lw4x3HLJ5nPTAC8yDU6zLxLwbCbnhgnqwfmMEICAsT5bhOfo+MA4itbc2yE497hc39LY8+PiT8xT2NVfh/9M1yqQmQv6psGqmZQ4t38fxhgYBz0DFHncdi6fAY9czGRMPCn5k2TLbwh1jHAkTP8OEwmztl/p4gH3xQjGlHEv6YXkTc86IDYRz9BG9/9qWMO60Rf/EhhVcAYzojfxIfFIzIar9Z+DMTgWwMRV1AowePHZ5ccKPTOxU89WiN2UjCX5oZnH2xm/AH2gg88tLAiFxEnLv530QJ/w+/Xi5/w17XmG44JlL4awuXG5vcvYWogHjCs79j/gKv+wX4+9wpF1TyiD/jzuY9AfLdQR1V1V28z3BsYfFor7RFtca6CC9WeUUFXu/gR6Ie4RrGtDCdletvDGmHE/4ANvvIA442jOEjAa88nmXEgnx0VozX1cr39fpNbvUD9QbedsYq/Hfs2yc7UYlp7mZNY6WuvkZaLWAmDwMfHZ3eJrsTDQt/Ztow2cJ/2foNMj1sET3jsBAWAmNPSIj8jevdIMQ8PkgwKcIag3CB5wIjjZGE/8vvLpFxnmsRsDgYoyKIOx3hr3n8UG23rpnuwEWiFsbCn5kI4PIODSEWwqrqBMIwooj3yeQaaYPdOc554+PPvM4JCA2TcUbhv3XPXtmoLvlyqagPmRQSHUXJGWmkWgA3UcIfLnCRFh5BPPOBAIB5ETY90uJOR/h73geEDvKCi0HPa2O24/0vv6Z9YWEyDmWB60AMZrS3e4uFpma28We8sVlN9Merb5Rtj8ptJ94rtBd4b41uLVFnEQbTlsS0FNmOZuZmK/PYExwiF7W+8t6HsrMPV7RYO6Nqo0YS/m3ivYa5IGauPOMAtMJXq9fo7zc8YOGdXynqEepzaHQ0pWVleNUz3CO8dRnFvUZLa7McgBir8O/q6pCzko+/IsqveBZYp4RyoozIZ97CRbR4ycdeZk2a7T9mRjzr/kTDwp+ZNkyU8Idpy09ERSyrcLe3x4IfLFrC9GNuQb4eDhMerLrHBwO+9BGGRXnIGzb+sC/EQmI0uDkFBcpGdCThDzd/iFv8wUd6GOwqX3n/Q2n6gzij8MeUIMKwL4EWpqES/hBD8OqDzo5xZAQCBh/4H59/mVwMqYWz8Gcmgt2icUdDCBe5qniA9whpNL/9aPjg5hYNK3z6a+nwrv72iiGXfZqwhYs81Eu8sxDPm3fvkSY/cPGnnasxUcIf18V3Bx2OXUHBbnnB/AFpjf75xyP88Qxwr7D3NaaH0EBHHvHGjj/CnxDCAteJjI/T7wEiDGHw3tVuWFwN86pr7n5QXgOw8Gc0YP+OdxsmPSoxDcxm5yJfLEzVBCvELcIef/lVWrpmnXz3YpMS3Ux8ANKiDcZ7iXV1cJ8Jl9VoWzQXmUZGEv6oMzAjRF7oTBjrEPbmwLcB3wSYvmFwQfO4h/UIn4t6iTUGSaLDYfSQpYEBOZyPgTYtX5gkwZQJNviewh9etZB+l8jTs5z3L3hBlhEi31jXUDY8a7ghxjnI5/6nn5dh8HCkpUVnDM8K38XGZveFyZMBC39m2jBRwl/zTAOweMnolx4LeSDm8aGBHeDdTzxDv4ZPXVGhsSW3MR808shDG5XXgNstz01ARhL+sCXEhh6Iv+KOe+VUJDbZwkI9bEyEcKPwx4cUo3gIx4JjdFa0OJXwB/BOgI8SRP6NDz0my4MP0Y/FveIcY1oW/szpgncf0+fw1W9sjD1BQweXe1hcrjVy8PiBhs/4rsKsAA05ptiNI/4Q7JgCR/3EImK8mwDvNkyISoSI0a41UcIfNDTWi7rqtLeHKQPq7LnX3SJ/YxGfMf/xCP+Nu5y7pCI/fE+wmY8WLztBLr/l6MzDXEfbP+RTj3zwfOEZDNeHUIHNMs7B9w0bGGHAYriyMf7Je198JerfhVSM2WtFPMA7Bt/yeOc6XS6iMfMNs1LUZ7xTiAN41zBwZvSkU1lVLs3xUG8hxrW04OaH57uNao8k/AHcjmJNDwa3MMN19xPPSu9WKMOTi193M0eKEW0d3FH/SHwrtPoF8H1Bu2ccrccgH2YkUUbUGYzoo63Htd745DPZ0THOBsDlJ2YxkB9Mcn4mzsUsHOLQYbjqTuci3nNF2w5z4Etvc3ZYsN+PNuMJsDj6Utf+B+ggYZ8PzbwKi4xVswYTDQt/ZtqA0WrsfIcpQS0MXjgQpprax6gW4owjhxoYLUMHAvEwdzHGofJjuv4B0YDf/thT0h0hPkTGNCgLKjgqMH7jIwXxgJHLOx9/WsZhVkBLD/GAa6lcagKI//e/XCo397lTfGDe/Pgzqqmtlh8fnOdp04uOzsadO2UcRIMWjjIgzHPHQJCRkyWnaHFPEE8ffPWNm5tQDSxaRh6e4UArD/wdq+IZBqBzijq0dus2KT5VaTTQKcU7Zdz3AiOF2MDn1kefkCPZmLVC+BqRn9OHuFPUQlD85opr9TqOegJzO4zmoaE0mhlhih5lQudVu44GPHAhrqik2CsO3rY+FuWDADGGYyYQI3bzRRkwAIHNwIIiYJ/sfj5c3+L+jIJcA4sJcd2ENG/3uLinr9esk+fuDHL3foLzsBkSPAvBM89L4hul2u1YIyE5WaRZIvceuf+ZF6SnFTxv1GdcX1U2xv/Au/vN+vW0dO060Rkc/p1AOnjmwbuDuo7f2DUXAlVbrI/Re7jAxcw0OtUws9E6mNi8Cx11mOfh3cO+Oah7K0RHFINZ2B1Y8yaEthFt3L5wpwmbVgZP1m7dTo+/8rqsi08uekOuFTCKZJTxCiGk0TmocXkewswg6hl8/aMjgG+N0cQG9QNtMUQ/2kwMPphFvYd5EmbqPTvM6IRs3OFsl7Go19gxANv37aOnFr8pByXmv/yqnDH0TAOgE5at3yjdj2KkH7MogRERuqvRyYaFP8MoWL99pxxhMLrsNIIRE+wQqopjGOb0QecWggIeqzwFARp57BSKGYepaiwZxl+B1xzM0oVGD/nq10BdPP/62+iy2+6WQhy++GFqO+/FRcoR/KcWvS5nDZDOM+50KBAdC8wcrNnm7h8fODsut8tOwXC7EvsTLPwZRsG6bdvlqL7nzp0AU6SYvscUv2ccwzATA2bm0JBjhsxTbGAUDS7+/nj1DV5xDMNMLNj0EnXx63XrvWYKMDOGNSkY5Ybwh706XHbCQ5Wn2Qrq7Q0PPibNaydagGPWHmV8dclHXh0OjLD/9sq50isRC38W/gyjRIqOsy+Woxxfr10nfYfDfAgbgWDdAOz/mltGd7nHMMz4wCjdQ88tlDNvjy1cLDfxQh2Ex5uHnntJhn/0jbvNO8MwEw/qorbGBevbYKqHurgnOJjmuDaoCo4c8kT1xMuvyjAsIA4W9RVpI+Pj6MFnnZuDYWHtRK87QRm1zbIWvvO+vB6uGxAaKk0C0ZbvDgrmGUIBC3+GGQbsBogFwOgA4IOncc09D3rZAzMMM/FgNPHpV9+ULnqNdfB3V86Vi+9Z9DPM1ABb/AcWLJSLZ4118fzrb3fzjAOw6PWtT7/QF6Vr/Pqya+mjpcsmXPRrYD3CYwtfkYNzxuvCOxhcA7Pod8LCn2FGAR80LEwCxp3/GIaZOuBpB3WwQeHKk2GYqQMDX6iLY9lYC/UVaVWOJiYT7LaP62KPHlW8P8PCn2EYhmEYhmH8ABb+DMMwDMMwDOMHsPBnGIZhGIZhGD+AhT/DMAzDMAzD+AEs/BmGYRiGYRjGD2DhzzAMwzAMwzB+AAt/hmEYhmEYhvEDWPgzDMMwDMMwjB/Awp9hGIZhGIZh/AAW/gzDMAzDMAzjB7DwZxiGYRiGYRg/gIU/wzAMwzAMw/gBLPwZhmEYhmEYxg9g4c8wDMMwDMMwfgALf4ZhGIZhGIaZ9djo/wO/4h6p8TfH0gAAAABJRU5ErkJggg==;" vertex="1" parent="1">
          <mxGeometry x="270" y="360" width="358.2" height="106.62" as="geometry" />
        </mxCell>
        <mxCell id="9N5VcvwG8qzn36j6Q9Zj-20" value="PyMuPDF4LLM" style="shape=image;verticalLabelPosition=bottom;labelBackgroundColor=default;verticalAlign=top;aspect=fixed;imageAspect=0;image=https://pymupdf.readthedocs.io/en/latest/_static/sidebar-logo-light.svg;" vertex="1" parent="1">
          <mxGeometry x="490" y="160" width="39.21" height="30" as="geometry" />
        </mxCell>
        <mxCell id="9N5VcvwG8qzn36j6Q9Zj-21" value="" style="shape=image;verticalLabelPosition=bottom;labelBackgroundColor=default;verticalAlign=top;aspect=fixed;imageAspect=0;image=https://cdn.icon-icons.com/icons2/2699/PNG/512/apache_spark_logo_icon_170561.png;" vertex="1" parent="1">
          <mxGeometry x="781.5" y="120" width="60" height="30" as="geometry" />
        </mxCell>
        <mxCell id="9N5VcvwG8qzn36j6Q9Zj-24" value="LLamaIndex" style="shape=image;verticalLabelPosition=bottom;labelBackgroundColor=default;verticalAlign=top;aspect=fixed;imageAspect=0;image=data:image/jpeg,/9j/4AAQSkZJRgABAQAAAQABAAD/2wCEAAkGBxEODw0PDxAQDhAQEBARDxUQEBASEBASFRgiFxYSExUYKCggGBolGxUVITEkJSkrLjEuGB8zODMuNygtLy0BCgoKDg0OGhAQGi0lHx0tLSstKy8tLS0rMC03KzIrKzUtLi8vLS0tLS8tKy0tLS0tNy0tLS0vLTcrLS0tLS0tK//AABEIAOEA4QMBIgACEQEDEQH/xAAcAAEAAgMBAQEAAAAAAAAAAAAABwgBAgYFBAP/xABJEAABAwICBAQTBgQGAwAAAAABAAIDBBEFIQYHEjEXQVFhCBMiNDVCU1Rxc3SBkZKUobKz0RQyUnKCwSMkYrEVFmOTosIlM0P/xAAaAQEAAwEBAQAAAAAAAAAAAAAAAgMEBQEG/8QAKREBAAICAQQBAQkBAAAAAAAAAAECAxEEEiExUUEiExQjMjNhcbHRBf/aAAwDAQACEQMRAD8AnFERAREQEXiaR6WUOGNDqypjhJF2szdK7nbG27iOe1lG+La/aZhtSUU0+ZF5pGQjwgN2yfPZBMaKv8mv+qv1NDTgf1SSuPpFlpw/VnedL60v1QWDRV84fqzvOl9aX6pw/VnedL60v1QWDRV84fqzvOl9aX6pw/VnedL60v1QWDRV84fqzvOl9aX6pw/VnedL60v1QWDRV84fqzvOl9aX6pw/VnedL60v1QWDRV84fqzvOl9aX6pw/VnedL60v1QWDRV84fqzvOl9aX6pw/VnedL60v1QWDRV84fqzvOl9aX6rLdf1XfOipiOZ8oQWCRQthnRAQk2qqCWMfigmZKT+l4Zb0qRdGNOsOxTqaWpY6TjifeOYctmOttW5W3HOg6RERAREQEREBERBgm1ycgN6g/WVrmIdJSYQ4dSdmSqs1wNt4gByI4ts8+zxOTXvp+QX4RSPLch9ue3IkEXFODyWILrcob+IKDUH61NQ+V7pJXvlkebvc9xc9x5XOOZK/JEQERfVLh0zIYqh0bhDK5zY5LdQ5zd7b8R5jmg+VF9+I4NU0rYXzwyRMnjZJC5w6iRjxtNLXDK9iMt4418CAiIgIiICIiAiIgIiICIiAtmOLSCCQQQQQbEEbiCtUQS7q61yzUrmU2KOfU05Ia2f708A3dXxyt4+N2/fkFYGlqGTMZLE9skb2hzHMIc17TmHNIyIVIVK2pHT80U7MOqnk0lQ8CAuzFPM45W5GOJz4gTfK7igsaiIgIiIC8TTPHm4Zh9XWOzMUf8MHtpHHZjaeYuc2/Nde2ob6JLEyylw+kF/wCNNJM6x4omhoB5QTLf9KCBaqofLJJLI4vkke573He5zjdzjzkkr8kRARF+9DSPqJYoYml8kr2xxtHbOcbAekoPwU76laaOrwapp6iNs0P2yVpa8XaQY43ekEk33jJePRajZCGGeuYw5bbYoXPtyhrnEX8NvMpU0cwKHDaaOlpwdhlyS4gve473uPKf2CjM7XY6Tvu/SpwiCWmFHJE2SnEbY9h/VDZaLNz33FhY7+NV21jaGOwioGxtPpZrmB53i2+J/wDUPeCDygWVcVzunWAjEqCop7AybPTICe1mYLtz4r5tPM4qcQvvj6oVeRZItkciN6wvGIREQEREBERAREQEREBERAREQWx1S6THFMLgkeS6eE/Z6gne57ALPPLtNLSecnkXZKv/AENuJltXX0hvsywNnGeQdE7ZNhykS/8AFWAQEREBV+6JR5+2Yc3iFPIR4S+x+EKwKr50SfX1B5K75hQQ+iIgL1dFsVFDXUlWW7bYJmPc0by2/VAc9ibc68pEFu8JxeCtibPSysmjcBm05tv2r272u5jmvqJVRMOxGaleJKeWSB47aN7mHwG28cysPqrxarrcOFRWvErnSvbE7Ya1zo22F3bNgTtbQ3cS8iGrHfqnTsCVoSskrQlW1hqrCtGsfDfsuK10YFmuk6czktKNuw5gXEeZc0pJ16U2zX00vFJStB/Mx7r+4tUbKE+XOyxq8wIiLxAREQEREBERAREQEREBERBI2oJ5GNxAdtBOD4Nm/wCwVnVWDUL2cg8TUfArPoCIiAq+dEn19QeSu+YVYNV86JPr6g8ld8woIfREQEREBWp0RoRS4dQQgW2KeLayt1bhtPPnc5xVV2i5AGZOQVvGs2QGjc0Bo82SlVp40d5CVoSskrQlW1hurCINfcfVYa/lbUN9BYf3UTKatesN6Ojk/DUlvrsJ/wCihVV5I+pz+TGskiIigoEREBERAREQEREBERAREQSJqF7OQeJqPgVn1WDUL2cg8TUfArPoCIiAq+dEn19QeSu+YVYNV86JPr6g8ld8woIfREQEREH60suxJG8i+y9rrctjdW4c6+Y3HMKoStJolWGfD6CUm7n00O1zuDQHe8FTo18XzMPVJWhKyStCr4hviHD65INvCnu7lPC8c1yWf91AatZXUcdRG6KaNksbrbTXtDmmxuLg84BXk/5Pw7vGm/2mqN8c2nbJnwze24lWlFZX/J+Hd403+01fjJoThpNzRQeZpA9AK8+wn2yzimPlXBFYmXQPC3Cxoox+V0rT6WuC+WXVvhR3Upb+Weo/dxT7vZVPZACKZsQ1SUj7mCeeEncHbErB5upPvXIYzqxrqe7otirYO5G0luUsd/YEqM4bx8K/ta+3EIv0nhdG5zHtcx7TZzXAtc08hBzC/NVLBERAREQEREEiahezkHiaj4FZ9Vg1C9nIPE1HwKz6AiIgKvnRJ9fUHkrvmFWDVfOiT6+oPJXfMKCH0REBERAVi9VVT0zB6LO5Z02M82zI6w9UtVdFLWonFDetoycrNqIxyHJkh+X6FPH5aONOr69pbJWpWSsLVDpz2YWChWF7DPewVqVkrUqcMeSzBWpWStSpxDDluwVqVkrUqyIc7Ld5mNYDS1wAqYGS2+67NsjeYPbZwHNey5k6r8P6YH/zGyN7OmjYPntte9duVqUnFW3mGK3JyU7VtMPEptEsPibsto6cj/UjEjvWfcrkNOtX8XSpKmhZ0t8YLpIm3LHtG8sHE4cgyNshffJCL22Glq60zY+Xlpfri0/6rAi9rTLD20uIVkLBZjZNpgGQa14D2tHMA4DzLxVx7RqZj0+spaLVi0fPcREXiSRNQvZyDxNR8Cs+qwahezkHiaj4FZ9AREQFXzok+vqDyV3zCrBqvnRJ9fUHkrvmFBD6IiAiIgKQdSJ/8lL5JL8bFHy6fVviwo8TpZHnZjeTDITuDZBYE8gDtk+ZSrPeFmKdXiZWMWFkrUrY6dpFqVkrUqUMt7BWpWStSpxDFkswVqVkrUqcQ5+W7BWpKyVqVZEObluwVqVkrVThzsltiwSsri9NtORh7zTxxGScxhwc4gRN2r2Jtm45bsvCvL3ikblPjYLZb9NUe6zZA7Faq3EIWnnIjbf6eZcsv1qZ3SvfJI4ve9xc8ne5xNyV+S4t7dVpn2+tx16KRX1AiIoppE1C9nIPE1HwKz6rBqF7OQeJqPgVn0BERAVfOiT6+oPJXfMKsGq+dEn19QeSu+YUEPoiICIiAiIgm3Vlp22qjjoqp+zUsAZE95yqGjIAk/8A0Hv8N1IhVTwVKGrvWLMZYKKtd01kjmxxTOJ6Yxxya157cE2FzmL5krRjyfEtNM3bUpeK1KyVqVphXksFalZK1KsiGHLdgrUrJWpU4hzst2CtSslaFWRDm5bhWEQqTJ5lhxUI61nXxOTmihA9W/7qa3FRBrfpC2sgm7WWAN/Uxxv7nMWblx+G7v8AzMXTO/2cGiIuU7QiIgkTUL2cg8TUfArPqsGoXs5B4mo+BWfQEREBV86JPr6g8ld8wqwar50SfX1B5K75hQQ+iIgIiICIiAvR0cNq2h8qp/jC85fbgjtmqpCeKeE+h4XseRaFy0K2ctCulEIZLPkxavbSwTVEgcWRML3BttogcQvYXXM02srDHgXmfETxSQyXHhLQR719OsufpeE1p43NjYP1SNB911X1U5cs0tqFNccZInaww03w0i/2yLz7Y91l8lRrDwxl/wCZ2zyMimPvtb3qBEUPvd/UK54NJ8zKXsQ1sU7QRBTzSniMhZE3w5bR/suk0MxqTEKQVMrWMLpJAGsvZrWmwBuTc86r6pP1P480CWgkdZznGWC5+8SLPYOfqQQPzKzByLWyatLHzuFSmGbUjvH9JQWritivzcV0HJ4+Lrs1cVHWuJgMFG7jEr2jwObc/CFITiuD1uRk0UDvw1DQeYFjvoqeR+nL6jjYemu0SoiLjrxERBImoXs5B4mo+BWfVYNQvZyDxNR8Cs+gIiICr50SfX1B5K75hVg1X3ok2/zuHniNM8eh5+qCHkREBERAREQFsxxaQRvBBHhC1RBalj9oB34gD6c0K+XC5L01M4nfBEST+QElc1q7x19fHXve4uArJDFfe2J4BazwDNdOJ7xHtlyT2mfTzdc9ZsUMMQNjNOCedrGkn3lihdSPrsq9qqpIeKOB0nnkcR/aMKOFizzu8rMEfRAiIqVwto5CxzXNJa5pDmlpIc0jMEEbitUQWD0SxwYhRxT5dMtsTAcUrfvZcQOThzFfLpFpKyhqaKOWwhqBMHu443NLdhx/p6pwPp4s+a1NRkQ1z7nZdJE0cl2hxPxNXg62MQEtc2JpuKeJrT+d3VH3FnoXTnNMYYv8udh4taZZiPCXb3zGY4l4mmtKJsOrWntYnSDmMfVj4Vw+rTSeQTR0Mzi+J7S2C+ZjcMw2+/ZIBFuI2Xaad17afD6ouOcrDCwcbnSCxA8Ddo+ZWRlrkxTZ1666UFoiLkKRERBImoXs5B4mo+BWfVYdQjb43DzQVBPq2/dWeQEREBQr0SuHEw4ZVDcySaB3hkaHs+U/0qalzesTR7/FMMq6Vv8A7HM24DllLGdpovxXtsnmcUFQEWXtLSQQQQSCCLEEbwQsICIiAiIgL9qOmdNJHFGNp8j2sYOVzjYD0lfipe1SaLxsiZiMtnSybYpwd0bQSwvt+I2d5vCp46TedI2t0xt1GmdYKHCqktObYGwR233eBGCPACT5ly+pI/y9b46P4Svi1v4w6eanw2HqiHNfIGkdVK/KNnhAN/1hdjoPov8A4XTujL+mSylr5rfcDgLbLOMgcp3825bI3bL28Qx5bRXF38yjbXE6+JNHJTRD3uP7rhl0+smvbUYpVOYdpsZZEDxXY0B1v1bS5hZMs7vLVhjWOv8AAiIq1giLvdWmjsE96yoeP4MuzHGS0NLmgO23X3jqhlzeZTx0m9umEbW6Y26fCXswPCGPmAErryFhyL5njqY/M0NB5LFRDWVLppJJZDtPkc57zyucbld3rgqNuajaHBzRE85EEAl2e78oUfK7k279EeKvKV1G/b39AxfE6LxhPoaSpA1sxbVAx34KiM+YtcLe8ehcdqzw6WSvhmawmKHbMj+1aXMIaL8ZuRkup1u1QbS00N+qkm27crWNIPve1WYu3HtMr4/LKKERFiViIiCXehvw4vr62p7WCmEf65XgtPoif6VYZcBqT0bOH4VG6QWmrHfaX33ta4ARs9UA24i8rv0BERAREQV5166CGmmfilM0mnnePtLWjKCZ2W3l2rzxntifxAKIld6qp2TMfFKxskcjSx7XgFr2uFi1wO8EKu+srVDNQukqsOa+ppCbmJoc+enB4rb5GDl3gb9xcgilERAREQEREH7UdU+GRksbtmSNwcx1gdlw3EXXunTrEu/JPRH9FziKUWmPEozStvMMk3zOZWERRSEREBERAREQevhWktXRsMVPOY2Fxds7LHC5yJG0DbcF8+L4xUVrmvqZDK5jdltw1oAvfc0AL4EUuu2tb7PdyIiKLwUg6n9BDi1WJ5mn7FTPa6UkdTNIMxAL775F3NybQTV1qtqcWcyaYPpKK4Jkc20kw32gB3/nPUjnsQrLYPhcNFBFTU0bYYYm7LGt4uMkk5kk3JJzJJKD7AiIgIiICIiAiIg43SzVlhuKFz5ITBO43M1NaORx5Xixa/wkX51GWLagalpvSVsEwucp2PhcBxC7dsOPoU/ogrHLqUxhpsI6d/O2dtv+VlpwL4z3GH2iNWfRBWDgXxnuMPtEacC+M9xh9ojVn0QVg4F8Z7jD7RGnAvjPcYfaI1Z9EFYOBfGe4w+0RpwL4z3GH2iNWfRBWDgXxnuMPtEacC+M9xh9ojVn0QVg4F8Z7jD7RGnAvjPcYfaI1Z9EFYOBfGe4w+0RpwL4z3GH2iNWfRBWDgXxnuMPtEa2ZqVxgmxjgbzmoZb3XVnUQV6wzUHWvP8AM1dNA3/SEk7/ADghg96kbRbVHhmHkSOjdWzDMOqdlzGn+mMDZ4r53I5V36IACIiAiIgIiICIiAiIgIiICIiAiIgIiICIiAiIgIiICIiAiIgIiICIiAiIgIiIP//Z;" vertex="1" parent="1">
          <mxGeometry x="793.25" y="160" width="36.5" height="36.5" as="geometry" />
        </mxCell>
        <mxCell id="9N5VcvwG8qzn36j6Q9Zj-25" value="API" style="aspect=fixed;sketch=0;html=1;dashed=0;whitespace=wrap;verticalLabelPosition=bottom;verticalAlign=top;fillColor=#2875E2;strokeColor=#ffffff;points=[[0.005,0.63,0],[0.1,0.2,0],[0.9,0.2,0],[0.5,0,0],[0.995,0.63,0],[0.72,0.99,0],[0.5,1,0],[0.28,0.99,0]];shape=mxgraph.kubernetes.icon2;prIcon=api" vertex="1" parent="1">
          <mxGeometry x="1020" y="282" width="50" height="48" as="geometry" />
        </mxCell>
        <mxCell id="9N5VcvwG8qzn36j6Q9Zj-27" value="Arquestador - Langchain" style="aspect=fixed;sketch=0;html=1;dashed=0;whitespace=wrap;verticalLabelPosition=bottom;verticalAlign=top;fillColor=#2875E2;strokeColor=#ffffff;points=[[0.005,0.63,0],[0.1,0.2,0],[0.9,0.2,0],[0.5,0,0],[0.995,0.63,0],[0.72,0.99,0],[0.5,1,0],[0.28,0.99,0]];shape=mxgraph.kubernetes.icon2;prIcon=api" vertex="1" parent="1">
          <mxGeometry x="1191.8" y="187.94" width="50" height="48" as="geometry" />
        </mxCell>
        <mxCell id="9N5VcvwG8qzn36j6Q9Zj-30" style="edgeStyle=orthogonalEdgeStyle;rounded=0;orthogonalLoop=1;jettySize=auto;html=1;entryX=0.5;entryY=0;entryDx=0;entryDy=0;entryPerimeter=0;" edge="1" parent="1" source="9N5VcvwG8qzn36j6Q9Zj-27" target="9N5VcvwG8qzn36j6Q9Zj-25">
          <mxGeometry relative="1" as="geometry" />
        </mxCell>
        <mxCell id="9N5VcvwG8qzn36j6Q9Zj-39" value="Module" style="shape=module;align=left;spacingLeft=20;align=center;verticalAlign=top;whiteSpace=wrap;html=1;" vertex="1" parent="1">
          <mxGeometry x="200" y="50" width="100" height="50" as="geometry" />
        </mxCell>
        <mxCell id="9N5VcvwG8qzn36j6Q9Zj-40" value="" style="html=1;verticalLabelPosition=bottom;align=center;labelBackgroundColor=#ffffff;verticalAlign=top;strokeWidth=2;strokeColor=#0080F0;shadow=0;dashed=0;shape=mxgraph.ios7.icons.mail;" vertex="1" parent="1">
          <mxGeometry x="140" y="63.5" width="30" height="16.5" as="geometry" />
        </mxCell>
        <mxCell id="9N5VcvwG8qzn36j6Q9Zj-41" style="edgeStyle=orthogonalEdgeStyle;rounded=0;orthogonalLoop=1;jettySize=auto;html=1;entryX=1.116;entryY=0.26;entryDx=0;entryDy=0;entryPerimeter=0;" edge="1" parent="1" source="9N5VcvwG8qzn36j6Q9Zj-39" target="9N5VcvwG8qzn36j6Q9Zj-40">
          <mxGeometry relative="1" as="geometry">
            <Array as="points">
              <mxPoint x="200" y="-12" />
            </Array>
          </mxGeometry>
        </mxCell>
        <mxCell id="9N5VcvwG8qzn36j6Q9Zj-43" style="edgeStyle=orthogonalEdgeStyle;rounded=0;orthogonalLoop=1;jettySize=auto;html=1;" edge="1" parent="1" source="9N5VcvwG8qzn36j6Q9Zj-42">
          <mxGeometry relative="1" as="geometry">
            <mxPoint x="420" y="290" as="targetPoint" />
            <Array as="points">
              <mxPoint x="340" y="5" />
              <mxPoint x="340" y="290" />
            </Array>
          </mxGeometry>
        </mxCell>
        <mxCell id="9N5VcvwG8qzn36j6Q9Zj-42" value="AZURE IA ESTUDIO" style="shape=module;align=left;spacingLeft=20;align=center;verticalAlign=top;whiteSpace=wrap;html=1;" vertex="1" parent="1">
          <mxGeometry x="479.60999999999996" y="-70" width="300" height="150" as="geometry" />
        </mxCell>
        <mxCell id="9N5VcvwG8qzn36j6Q9Zj-44" value="LNP" style="ellipse;whiteSpace=wrap;html=1;aspect=fixed;fillColor=#dae8fc;strokeColor=#6c8ebf;" vertex="1" parent="1">
          <mxGeometry x="519.61" y="-35" width="80" height="80" as="geometry" />
        </mxCell>
        <mxCell id="9N5VcvwG8qzn36j6Q9Zj-48" value="BONITA" style="rounded=1;whiteSpace=wrap;html=1;" vertex="1" parent="1">
          <mxGeometry x="1000" y="-210" width="325" height="60" as="geometry" />
        </mxCell>
        <mxCell id="9N5VcvwG8qzn36j6Q9Zj-51" value="API" style="aspect=fixed;sketch=0;html=1;dashed=0;whitespace=wrap;verticalLabelPosition=bottom;verticalAlign=top;fillColor=#2875E2;strokeColor=#ffffff;points=[[0.005,0.63,0],[0.1,0.2,0],[0.9,0.2,0],[0.5,0,0],[0.995,0.63,0],[0.72,0.99,0],[0.5,1,0],[0.28,0.99,0]];shape=mxgraph.kubernetes.icon2;prIcon=api" vertex="1" parent="1">
          <mxGeometry x="850" y="-19" width="50" height="48" as="geometry" />
        </mxCell>
        <mxCell id="9N5VcvwG8qzn36j6Q9Zj-52" style="edgeStyle=orthogonalEdgeStyle;rounded=0;orthogonalLoop=1;jettySize=auto;html=1;entryX=0.005;entryY=0.63;entryDx=0;entryDy=0;entryPerimeter=0;" edge="1" parent="1" source="9N5VcvwG8qzn36j6Q9Zj-42" target="9N5VcvwG8qzn36j6Q9Zj-51">
          <mxGeometry relative="1" as="geometry" />
        </mxCell>
        <mxCell id="9N5VcvwG8qzn36j6Q9Zj-56" style="edgeStyle=orthogonalEdgeStyle;rounded=0;orthogonalLoop=1;jettySize=auto;html=1;entryX=1;entryY=0.5;entryDx=0;entryDy=0;startArrow=classic;startFill=1;exitX=0.5;exitY=1;exitDx=0;exitDy=0;exitPerimeter=0;" edge="1" parent="1" source="9N5VcvwG8qzn36j6Q9Zj-53" target="9N5VcvwG8qzn36j6Q9Zj-50">
          <mxGeometry relative="1" as="geometry" />
        </mxCell>
        <mxCell id="9N5VcvwG8qzn36j6Q9Zj-53" value="" style="sketch=0;points=[[0,0,0],[0.25,0,0],[0.5,0,0],[0.75,0,0],[1,0,0],[0,1,0],[0.25,1,0],[0.5,1,0],[0.75,1,0],[1,1,0],[0,0.25,0],[0,0.5,0],[0,0.75,0],[1,0.25,0],[1,0.5,0],[1,0.75,0]];points=[[0,0,0],[0.25,0,0],[0.5,0,0],[0.75,0,0],[1,0,0],[0,1,0],[0.25,1,0],[0.5,1,0],[0.75,1,0],[1,1,0],[0,0.25,0],[0,0.5,0],[0,0.75,0],[1,0.25,0],[1,0.5,0],[1,0.75,0]];outlineConnect=0;fontColor=#232F3E;fillColor=#E7157B;strokeColor=#ffffff;dashed=0;verticalLabelPosition=bottom;verticalAlign=top;align=center;html=1;fontSize=12;fontStyle=0;aspect=fixed;shape=mxgraph.aws4.resourceIcon;resIcon=mxgraph.aws4.chatbot;" vertex="1" parent="1">
          <mxGeometry x="1140" y="16.25" width="78" height="78" as="geometry" />
        </mxCell>
        <mxCell id="9N5VcvwG8qzn36j6Q9Zj-57" value="LLM - GPT 4" style="aspect=fixed;sketch=0;html=1;dashed=0;whitespace=wrap;verticalLabelPosition=bottom;verticalAlign=top;fillColor=#2875E2;strokeColor=#ffffff;points=[[0.005,0.63,0],[0.1,0.2,0],[0.9,0.2,0],[0.5,0,0],[0.995,0.63,0],[0.72,0.99,0],[0.5,1,0],[0.28,0.99,0]];shape=mxgraph.kubernetes.icon2;prIcon=api" vertex="1" parent="1">
          <mxGeometry x="1200" y="350" width="50" height="48" as="geometry" />
        </mxCell>
        <mxCell id="9N5VcvwG8qzn36j6Q9Zj-58" style="edgeStyle=orthogonalEdgeStyle;rounded=0;orthogonalLoop=1;jettySize=auto;html=1;entryX=0.005;entryY=0.63;entryDx=0;entryDy=0;entryPerimeter=0;exitX=0.5;exitY=1;exitDx=0;exitDy=0;" edge="1" parent="1" source="9N5VcvwG8qzn36j6Q9Zj-50" target="9N5VcvwG8qzn36j6Q9Zj-57">
          <mxGeometry relative="1" as="geometry" />
        </mxCell>
        <mxCell id="9N5VcvwG8qzn36j6Q9Zj-61" value="API&lt;div&gt;WHATSAPP&lt;/div&gt;" style="aspect=fixed;sketch=0;html=1;dashed=0;whitespace=wrap;verticalLabelPosition=bottom;verticalAlign=top;fillColor=#2875E2;strokeColor=#ffffff;points=[[0.005,0.63,0],[0.1,0.2,0],[0.9,0.2,0],[0.5,0,0],[0.995,0.63,0],[0.72,0.99,0],[0.5,1,0],[0.28,0.99,0]];shape=mxgraph.kubernetes.icon2;prIcon=api" vertex="1" parent="1">
          <mxGeometry x="1300" y="-140" width="50" height="48" as="geometry" />
        </mxCell>
        <mxCell id="9N5VcvwG8qzn36j6Q9Zj-62" value="QUERY" style="edgeStyle=orthogonalEdgeStyle;rounded=0;orthogonalLoop=1;jettySize=auto;html=1;entryX=0.5;entryY=0;entryDx=0;entryDy=0;entryPerimeter=0;" edge="1" parent="1" source="9N5VcvwG8qzn36j6Q9Zj-61" target="9N5VcvwG8qzn36j6Q9Zj-53">
          <mxGeometry relative="1" as="geometry">
            <mxPoint x="1340" y="39" as="targetPoint" />
            <Array as="points">
              <mxPoint x="1325" y="-46" />
              <mxPoint x="1300" y="-46" />
              <mxPoint x="1300" y="-10" />
              <mxPoint x="1179" y="-10" />
            </Array>
          </mxGeometry>
        </mxCell>
      </root>
    </mxGraphModel>
  </diagram>
</mxfile>
